<?xml version="1.0" standalone="no"?>
<!DOCTYPE svg PUBLIC "-//W3C//DTD SVG 20010904//EN"
 "http://www.w3.org/TR/2001/REC-SVG-20010904/DTD/svg10.dtd">
<svg version="1.0" xmlns="http://www.w3.org/2000/svg"
 width="1080.000000pt" height="1080.000000pt" viewBox="0 0 1080.000000 1080.000000"
 preserveAspectRatio="xMidYMid meet">
<metadata>
Created by potrace 1.14, written by Peter Selinger 2001-2017
</metadata>
<g transform="translate(0.000000,1080.000000) scale(0.100000,-0.100000)"
fill="#000000" stroke="none">
<path d="M6975 10197 c-95 -100 -248 -324 -391 -574 -53 -92 -109 -187 -124
-210 -16 -22 -31 -50 -34 -60 -3 -11 -31 -64 -61 -119 -30 -54 -87 -160 -126
-234 -167 -318 -297 -566 -376 -717 -70 -135 -91 -167 -124 -190 -23 -16 -54
-39 -71 -53 l-31 -24 -39 22 c-29 16 -45 19 -58 12 -23 -12 -70 32 -70 66 0
12 -5 26 -10 29 -6 4 -8 10 -5 15 3 5 -32 36 -77 69 -59 43 -92 75 -113 111
-50 85 -63 99 -103 106 -20 3 -49 14 -64 25 -15 10 -36 19 -48 19 -12 0 -20 7
-20 16 0 9 -8 23 -17 30 -21 16 -79 18 -88 4 -7 -12 -36 -2 -53 19 -12 14 -15
14 -25 1 -15 -19 -63 -50 -76 -50 -6 0 -8 12 -5 28 6 29 -14 61 -39 63 -7 0
-21 2 -31 4 -11 2 -32 -3 -48 -11 -16 -8 -32 -12 -37 -10 -14 9 -71 -15 -71
-30 0 -8 5 -14 10 -14 6 0 10 -4 10 -10 0 -5 -11 -10 -24 -10 -25 0 -43 -34
-24 -46 5 -4 3 -13 -7 -24 -10 -11 -14 -26 -10 -43 6 -24 -3 -36 -61 -74 -18
-12 -18 -12 1 -6 20 6 20 5 1 -13 -14 -14 -20 -16 -23 -6 -3 8 -21 -5 -49 -35
-24 -26 -44 -42 -44 -35 0 6 5 12 10 12 6 0 8 11 4 26 -5 18 -1 29 12 39 11 8
15 14 9 15 -20 0 -39 -20 -40 -41 0 -17 -15 -31 -56 -56 -68 -39 -83 -70 -69
-143 12 -62 24 -81 63 -100 18 -8 37 -26 44 -40 11 -23 10 -26 -22 -43 -30
-15 -35 -23 -35 -51 0 -26 -8 -41 -31 -60 -17 -14 -35 -24 -40 -20 -5 3 -8 0
-7 -8 2 -7 -5 -13 -14 -13 -9 0 -20 -4 -25 -9 -5 -5 -2 -6 6 -1 11 6 13 4 8
-8 -6 -16 -4 -16 20 0 20 13 25 14 21 3 -6 -20 -99 -82 -114 -76 -7 3 -15 -1
-18 -9 -2 -7 -24 -17 -48 -22 -27 -5 -43 -14 -43 -23 0 -8 -10 -17 -23 -20
-21 -5 -22 -7 -8 -25 20 -27 20 -35 -3 -35 -30 0 -86 26 -70 33 9 3 9 6 2 6
-6 1 -15 -3 -18 -9 -3 -5 -22 -10 -42 -10 -22 0 -45 -8 -57 -19 -12 -11 -59
-38 -104 -61 l-84 -42 7 -36 c4 -21 9 -54 11 -75 5 -49 17 -71 77 -135 76 -80
129 -102 267 -113 103 -9 185 -6 231 7 11 3 19 -4 23 -21 4 -14 20 -37 36 -52
20 -17 30 -36 30 -54 0 -50 30 -160 60 -218 15 -31 48 -75 72 -99 50 -48 59
-48 133 2 28 19 51 26 86 26 l49 0 0 -35 c0 -29 -4 -35 -22 -35 -20 0 -20 -1
-5 -18 10 -10 17 -26 17 -35 0 -9 12 -29 28 -46 15 -17 49 -73 76 -125 46 -89
49 -100 51 -176 0 -45 -3 -84 -7 -86 -4 -3 -8 -19 -8 -35 0 -18 4 -28 10 -24
15 9 12 -2 -7 -32 -17 -25 -17 -25 5 -19 26 9 28 1 7 -21 -9 -8 -22 -12 -30
-9 -8 3 -17 0 -21 -5 -3 -6 -18 -9 -32 -6 -48 9 -65 -8 -36 -37 23 -23 -3 -21
-44 4 -24 15 -38 18 -51 11 -13 -7 -24 -6 -39 5 -14 10 -22 11 -22 4 0 -6 -5
-8 -10 -5 -6 4 -8 10 -5 15 3 4 0 10 -7 12 -15 5 13 38 32 38 6 0 8 5 5 10 -4
6 5 10 21 10 24 0 27 13 3 16 -5 1 -13 2 -19 3 -5 0 -7 7 -4 15 4 11 -4 16
-28 19 -30 4 -31 5 -10 12 24 8 28 20 12 30 -12 7 -4 25 11 25 5 0 9 -6 9 -12
1 -16 45 -68 58 -68 5 0 9 -13 9 -29 0 -22 -4 -28 -16 -24 -13 4 -13 3 -3 -5
21 -14 134 -3 152 15 10 11 12 17 3 20 -6 2 -21 13 -34 24 -20 17 -19 24 4 20
4 0 7 3 7 8 0 4 11 6 25 3 74 -14 -21 36 -130 69 -96 29 -386 38 -490 15 -151
-32 -200 -49 -191 -65 3 -4 -22 -8 -55 -8 -64 -2 -154 -37 -154 -61 0 -6 -3
-11 -6 -9 -9 3 -59 -59 -59 -75 0 -8 -5 -19 -10 -24 -6 -6 -17 -43 -25 -83 -9
-39 -24 -89 -35 -109 -11 -20 -20 -45 -20 -55 0 -10 -4 -15 -10 -12 -13 8 -13
60 -1 103 9 30 8 34 -15 42 -14 6 -78 17 -142 25 -181 24 -317 44 -437 65
-207 36 -396 53 -780 70 -308 14 -437 34 -812 130 -396 102 -474 104 -760 24
-71 -20 -230 -77 -355 -127 l-228 -90 0 -2958 0 -2959 5400 0 5400 0 0 2710 0
2710 -26 -6 c-14 -4 -144 -7 -287 -8 -226 -1 -279 2 -387 21 -69 12 -168 27
-220 33 -129 16 -403 73 -525 110 -258 78 -937 247 -1072 267 -161 24 -253 12
-763 -102 -85 -19 -179 -39 -208 -44 -53 -9 -54 -8 -73 23 -14 23 -19 50 -19
111 -1 120 -22 187 -53 168 -5 -3 -4 -9 3 -13 8 -5 12 -39 12 -101 0 -139 -1
-149 -13 -149 -7 0 -9 9 -6 22 4 12 3 41 0 65 -6 42 -7 43 -80 78 -40 19 -80
35 -87 35 -7 0 -24 8 -37 19 -13 10 -33 21 -44 23 -11 2 -19 9 -18 16 2 6 -4
9 -12 6 -8 -4 -50 3 -93 14 -142 37 -328 59 -335 39 -3 -9 -11 -8 -33 2 -16 8
-45 17 -64 22 -54 12 -240 84 -290 113 -25 15 -53 29 -62 32 -10 4 -18 10 -18
15 0 5 -12 15 -27 23 -16 8 -39 24 -53 36 -43 38 -260 142 -265 128 -9 -24
-38 -163 -43 -203 -2 -22 -11 -49 -19 -60 -14 -18 -15 -15 -9 39 4 32 11 66
16 76 5 10 7 40 3 66 -4 34 -3 45 5 40 8 -5 12 3 12 23 0 43 -10 61 -39 74
l-26 10 35 6 c19 4 38 3 41 -2 3 -5 26 48 50 118 47 135 54 153 64 143 4 -3
-3 -24 -15 -47 -11 -23 -16 -41 -10 -41 16 0 12 -21 -20 -95 -16 -39 -30 -75
-30 -82 0 -6 35 -31 77 -55 42 -23 90 -51 107 -60 28 -16 30 -16 42 0 8 9 14
27 14 39 0 12 5 25 11 29 6 4 8 20 4 40 -4 24 -2 34 7 34 13 0 38 43 38 66 0
6 7 14 15 18 8 3 15 13 15 23 0 10 7 30 14 45 12 23 12 30 2 41 -19 19 -36 54
-36 74 1 17 2 16 16 -2 9 -11 24 -37 34 -58 17 -38 17 -38 -16 -133 -18 -53
-35 -113 -39 -134 -4 -21 -15 -49 -26 -61 -14 -16 -16 -25 -8 -30 7 -4 9 -16
7 -27 -6 -23 24 -58 40 -48 6 3 15 39 22 79 17 103 34 169 90 336 49 144 61
213 40 226 -15 9 -12 41 5 55 8 7 14 20 13 29 -2 10 3 15 12 12 106 -27 106
-27 310 24 116 30 140 40 140 59 0 18 65 83 79 78 6 -2 14 3 17 12 3 9 12 16
19 16 30 0 43 43 34 109 -8 59 -19 93 -19 61 0 -8 -17 3 -39 24 l-38 38 -98
-10 c-98 -10 -135 -7 -135 9 0 5 -7 9 -16 9 -14 0 -14 -3 -4 -15 21 -25 1 -34
-89 -40 -90 -6 -121 -1 -121 18 0 7 -9 20 -20 30 -11 9 -20 24 -20 32 0 8 -3
15 -7 15 -5 0 -16 14 -25 30 -18 32 -42 42 -31 13 5 -13 3 -15 -13 -9 -50 21
-105 34 -171 41 -40 4 -70 11 -67 16 10 17 147 10 191 -11 24 -10 45 -15 48
-11 9 16 -25 33 -77 40 -38 4 -53 10 -53 21 0 20 53 18 96 -4 18 -9 34 -14 37
-12 10 11 -12 25 -78 52 -69 29 -70 29 -70 66 0 27 -6 41 -20 50 -11 7 -20 16
-20 20 0 14 20 8 40 -12 12 -12 25 -18 30 -15 17 10 11 24 -17 40 -16 9 -20
14 -10 11 10 -3 25 -6 33 -6 9 0 13 -4 10 -9 -3 -5 2 -12 12 -16 15 -6 15 -8
-7 -26 -23 -19 -23 -20 -6 -39 10 -11 26 -20 35 -20 9 0 35 -12 58 -27 41 -27
45 -34 46 -97 1 -21 8 -32 26 -40 14 -6 44 -23 67 -39 65 -41 82 -33 25 13
-62 49 -64 51 -45 75 13 16 15 17 10 3 -4 -12 -1 -18 9 -18 9 0 18 -9 21 -20
3 -11 26 -31 50 -45 40 -22 58 -25 139 -25 51 0 95 4 98 9 5 8 -56 20 -118 22
-17 1 -23 3 -13 6 9 2 17 11 17 19 0 11 -6 13 -19 9 -11 -3 -22 -1 -26 5 -3 5
-15 10 -26 10 -11 0 -23 10 -29 24 -5 13 -19 28 -32 32 -32 10 -49 35 -36 52
8 10 6 17 -11 29 -15 10 -21 22 -17 35 7 28 -78 116 -147 152 -70 37 -80 54
-63 103 8 21 21 52 30 68 9 17 16 36 16 43 0 7 4 20 9 30 6 9 56 109 112 222
56 113 123 246 149 295 26 50 68 128 92 175 25 47 55 101 67 120 31 52 33 47
-58 107 -2 1 7 16 19 32 20 30 48 40 64 24 4 -5 19 -8 33 -8 19 -1 29 8 45 38
23 46 18 67 -17 67 -30 0 -33 22 -6 49 23 23 61 18 61 -8 0 -12 5 -10 20 9 28
35 25 43 -20 63 -39 16 -39 18 -23 37 23 26 53 26 53 0 0 -11 6 -19 13 -17 6
1 11 -4 10 -10 -6 -28 9 -10 29 33 22 50 16 66 -24 69 -37 3 -30 20 105 255
11 19 36 64 54 100 35 65 125 192 171 240 24 25 24 25 -2 -21 -24 -42 -27 -79
-6 -79 6 0 31 17 80 57 69 56 97 73 140 89 28 10 50 21 50 26 0 4 -12 15 -27
25 -16 9 -39 27 -53 39 -19 16 -159 96 -164 93 -1 0 -23 -24 -51 -52z m5 -37
c0 -5 -7 -10 -16 -10 -8 0 -12 5 -9 10 3 6 10 10 16 10 5 0 9 -4 9 -10z m-620
-1020 c0 -5 -5 -10 -11 -10 -5 0 -7 5 -4 10 3 6 8 10 11 10 2 0 4 -4 4 -10z
m72 -187 c19 -17 25 -43 10 -43 -5 0 -17 9 -27 20 -10 11 -22 17 -26 14 -10
-6 -12 10 -2 19 11 11 25 8 45 -10z m-43 -72 c18 -24 19 -34 10 -60 -10 -27
-14 -30 -37 -25 -38 9 -42 13 -39 32 3 15 39 82 44 82 1 0 11 -13 22 -29z
m-61 -128 c21 -45 16 -55 -25 -51 -39 3 -52 21 -39 55 5 13 9 13 23 2 15 -12
16 -12 10 4 -11 28 17 20 31 -10z m-64 -98 c29 -23 29 -24 12 -50 -16 -24 -22
-26 -54 -20 -21 4 -38 8 -40 10 -7 7 31 85 42 85 6 -1 24 -11 40 -25z m-41
-122 c-7 -18 -16 -16 -43 5 -14 11 -20 24 -16 31 10 16 66 -17 59 -36z m-49
-32 c13 -15 14 -51 0 -51 -18 0 -54 27 -54 40 0 34 28 40 54 11z m-1386 -32
c-3 -8 -7 -3 -11 10 -4 17 -3 21 5 13 5 -5 8 -16 6 -23z m1365 -56 c-15 -5
-53 15 -53 28 0 5 15 2 33 -7 17 -10 27 -19 20 -21z m-1188 17 c3 -5 -1 -10
-10 -10 -9 0 -13 5 -10 10 3 6 8 10 10 10 2 0 7 -4 10 -10z m1149 -32 c19 -27
20 -38 4 -38 -24 1 -49 27 -42 44 8 22 20 20 38 -6z m-1294 -2 c0 -3 -4 -8
-10 -11 -5 -3 -10 -1 -10 4 0 6 5 11 10 11 6 0 10 -2 10 -4z m24 -11 c3 -8 1
-15 -4 -15 -6 0 -10 7 -10 15 0 8 2 15 4 15 2 0 6 -7 10 -15z m56 -35 c0 -5
-5 -10 -11 -10 -5 0 -7 5 -4 10 3 6 8 10 11 10 2 0 4 -4 4 -10z m314 -16 c3
-8 2 -12 -4 -9 -6 3 -10 10 -10 16 0 14 7 11 14 -7z m887 -1 c12 -15 12 -16
-4 -10 -10 4 -25 7 -33 7 -9 0 -12 5 -9 10 9 15 31 12 46 -7z m-51 -47 c10
-13 10 -19 0 -31 -6 -8 -9 -19 -5 -25 8 -13 -14 -42 -26 -34 -5 3 -9 12 -9 20
0 8 5 12 10 9 12 -8 13 1 1 23 -4 9 -11 30 -15 45 -6 25 -5 27 12 18 10 -5 24
-17 32 -25z m-1173 18 c-3 -3 -12 -4 -19 -1 -8 3 -5 6 6 6 11 1 17 -2 13 -5z
m103 -4 c0 -5 -5 -10 -11 -10 -5 0 -7 5 -4 10 3 6 8 10 11 10 2 0 4 -4 4 -10z
m1110 0 c0 -5 -4 -10 -10 -10 -5 0 -10 5 -10 10 0 6 5 10 10 10 6 0 10 -4 10
-10z m-1410 -29 c0 -5 -9 -11 -20 -14 -14 -4 -18 -11 -14 -24 5 -14 4 -15 -4
-4 -13 18 -5 39 16 44 10 3 18 5 20 6 1 0 2 -3 2 -8z m134 -3 c-3 -4 -12 -8
-20 -8 -8 0 -13 4 -10 8 3 5 12 9 20 9 8 0 13 -4 10 -9z m59 5 c-7 -2 -19 -2
-25 0 -7 3 -2 5 12 5 14 0 19 -2 13 -5z m-158 -13 c-3 -5 -12 -10 -18 -10 -7
0 -6 4 3 10 19 12 23 12 15 0z m155 -31 c13 -9 12 -10 -3 -5 -9 3 -38 1 -65
-3 -50 -10 -58 -9 -47 8 8 14 96 14 115 0z m-160 -15 c0 -17 -22 -14 -28 4 -2
7 3 12 12 12 9 0 16 -7 16 -16z m-140 -4 c0 -5 -4 -10 -10 -10 -5 0 -10 5 -10
10 0 6 5 10 10 10 6 0 10 -4 10 -10z m856 -31 c19 -22 19 -22 -3 -10 -24 12
-39 31 -25 31 5 0 17 -10 28 -21z m594 -14 c0 -5 -9 -25 -20 -42 -11 -18 -16
-33 -12 -33 4 0 2 -4 -3 -8 -14 -9 -42 -98 -56 -178 -6 -35 -15 -64 -21 -64
-5 0 -7 8 -4 18 3 9 8 44 11 77 3 33 11 88 17 123 9 56 12 62 31 56 18 -6 19
-3 14 25 -9 45 0 63 24 48 10 -6 19 -16 19 -22z m-1442 8 c-10 -2 -18 -9 -18
-15 0 -6 -3 -9 -6 -5 -10 10 6 27 24 26 15 -1 15 -2 0 -6z m-288 -38 c-7 -8
-16 -12 -21 -9 -5 3 -9 0 -9 -7 0 -7 -3 -9 -7 -5 -4 4 3 16 17 26 28 21 39 18
20 -5z m663 5 c-15 -15 -61 -22 -67 -11 -5 7 4 11 23 11 17 0 31 5 31 11 0 5
5 7 11 3 6 -3 7 -10 2 -14z m35 -5 c-3 -3 -9 2 -12 12 -6 14 -5 15 5 6 7 -7
10 -15 7 -18z m-478 5 c0 -5 -4 -10 -10 -10 -5 0 -10 5 -10 10 0 6 5 10 10 10
6 0 10 -4 10 -10z m560 -10 c11 -7 7 -10 -17 -10 -18 0 -33 5 -33 10 0 13 30
13 50 0z m110 0 c-8 -5 -12 -10 -7 -11 8 -2 117 -9 165 -11 17 -1 32 -5 32
-10 0 -10 -54 -10 -101 1 -33 7 -36 6 -32 -10 3 -11 0 -19 -6 -19 -6 0 -11 5
-11 10 0 6 -6 10 -12 10 -7 0 -31 12 -53 25 l-40 25 40 0 c29 0 36 -3 25 -10z
m-640 -31 c0 -5 -4 -9 -10 -9 -5 0 -10 7 -10 16 0 8 5 12 10 9 6 -3 10 -10 10
-16z m220 -19 c0 -5 -4 -10 -10 -10 -5 0 -10 5 -10 10 0 6 5 10 10 10 6 0 10
-4 10 -10z m1138 -77 c2 -8 -6 -13 -21 -13 -14 0 -28 -6 -30 -12 -4 -9 -6 -8
-6 3 -2 33 46 52 57 22z m-1203 -33 c3 -5 1 -10 -4 -10 -6 0 -11 5 -11 10 0 6
2 10 4 10 3 0 8 -4 11 -10z m350 -10 c-3 -5 -15 -10 -26 -10 -11 0 -17 5 -14
10 3 6 15 10 26 10 11 0 17 -4 14 -10z m-431 -16 c5 -14 4 -15 -9 -4 -17 14
-19 20 -6 20 5 0 12 -7 15 -16z m116 6 c0 -5 -2 -10 -4 -10 -3 0 -8 5 -11 10
-3 6 -1 10 4 10 6 0 11 -4 11 -10z m1020 -36 c0 -8 -5 -14 -11 -14 -6 0 -8 7
-5 16 3 9 2 12 -5 9 -6 -4 -8 -13 -5 -21 6 -15 -3 -18 -27 -8 -13 5 -12 9 5
30 16 18 24 21 35 13 7 -6 13 -18 13 -25z m140 4 c0 -5 -6 -8 -14 -8 -9 0 -12
7 -9 21 4 16 8 17 14 7 5 -7 9 -16 9 -20z m-380 18 c0 -2 -9 -6 -20 -9 -11 -3
-18 -1 -14 4 5 9 34 13 34 5z m-855 -16 c3 -5 -1 -10 -10 -10 -9 0 -13 5 -10
10 3 6 8 10 10 10 2 0 7 -4 10 -10z m-365 -52 c0 -5 -4 -8 -10 -8 -5 0 -10 10
-10 23 0 18 2 19 10 7 5 -8 10 -18 10 -22z m280 11 c0 -6 -4 -7 -10 -4 -5 3
-10 11 -10 16 0 6 5 7 10 4 6 -3 10 -11 10 -16z m1428 -27 c2 -7 -3 -12 -12
-12 -9 0 -16 7 -16 16 0 17 22 14 28 -4z m-282 -49 c-3 -4 -6 -1 -6 6 0 7 -4
9 -10 6 -11 -7 -14 8 -3 19 4 3 11 -1 16 -9 5 -9 6 -19 3 -22z m-685 17 c12 0
12 -27 -1 -35 -5 -3 -22 0 -37 8 -15 7 -37 12 -48 9 -13 -3 -17 -1 -10 6 12
12 54 21 73 16 8 -2 18 -4 23 -4z m1114 -38 c35 -29 59 -68 50 -83 -4 -6 -22
6 -41 26 -19 20 -31 41 -28 47 8 13 -14 28 -43 28 -12 0 -25 4 -28 10 -12 19
60 -3 90 -28z m-755 -1 c0 -6 -5 -13 -10 -16 -16 -10 0 -27 21 -22 23 6 25 -6
4 -23 -12 -10 -16 -9 -21 4 -5 13 -9 14 -20 5 -18 -14 -18 0 -2 36 11 25 28
34 28 16z m130 -11 c0 -5 -5 -10 -11 -10 -6 0 -9 -7 -6 -15 7 -17 -9 -30 -18
-16 -3 6 0 19 7 31 14 21 28 27 28 10z m536 -25 c18 -14 18 -14 -7 -15 -15 0
-29 7 -33 15 -7 19 14 19 40 0z m-596 -10 c0 -8 -4 -15 -10 -15 -5 0 -10 7
-10 15 0 8 5 15 10 15 6 0 10 -7 10 -15z m-905 -5 c3 -6 -1 -7 -9 -4 -18 7
-21 14 -7 14 6 0 13 -4 16 -10z m470 -8 c-3 -3 -11 0 -18 7 -9 10 -8 11 6 5
10 -3 15 -9 12 -12z m1090 8 c3 -5 2 -10 -4 -10 -5 0 -13 5 -16 10 -3 6 -2 10
4 10 5 0 13 -4 16 -10z m-1140 -10 c3 -5 -1 -10 -9 -10 -9 0 -16 5 -16 10 0 6
4 10 9 10 6 0 13 -4 16 -10z m92 4 c-3 -3 -12 -4 -19 -1 -8 3 -5 6 6 6 11 1
17 -2 13 -5z m861 -25 c-5 -15 -66 -40 -73 -29 -3 5 7 15 22 23 34 18 56 21
51 6z m-215 -31 c-4 -7 -8 -20 -8 -28 0 -8 -13 -17 -30 -20 -19 -3 -31 -12
-35 -27 -3 -13 -9 -19 -15 -15 -24 16 0 71 38 87 41 18 61 19 50 3z m-983 -28
c14 -11 19 -20 12 -20 -19 0 -52 19 -52 30 0 15 12 12 40 -10z m720 10 c0 -5
-4 -10 -10 -10 -5 0 -10 5 -10 10 0 6 5 10 10 10 6 0 10 -4 10 -10z m-370 -11
c0 -5 -4 -8 -9 -4 -5 3 -12 1 -16 -5 -9 -15 -25 -12 -25 5 0 9 9 15 25 15 14
0 25 -5 25 -11z m400 -21 c-1 -7 -7 -24 -15 -38 -11 -21 -15 -22 -20 -8 -7 18
10 58 25 58 6 0 10 -6 10 -12z m41 -31 c-13 -13 -15 1 -4 30 7 17 8 17 11 -1
2 -10 -1 -23 -7 -29z m-1537 -12 c-4 -8 -11 -15 -16 -15 -6 0 -5 6 2 15 7 8
14 15 16 15 2 0 1 -7 -2 -15z m889 -5 c3 -11 1 -23 -4 -26 -5 -3 -9 -12 -9
-21 0 -8 -8 -25 -18 -38 -14 -17 -22 -21 -35 -13 -21 11 -13 30 10 21 11 -5
14 -3 8 6 -7 13 24 91 36 91 4 0 9 -9 12 -20z m-130 -4 c6 -16 -2 -28 -14 -20
-12 7 -11 34 0 34 5 0 11 -6 14 -14z m387 -27 c0 -7 -6 -4 -15 7 -19 25 -19
40 0 20 8 -8 15 -20 15 -27z m80 16 c7 -8 9 -15 4 -15 -5 0 0 -7 10 -15 16
-12 16 -15 4 -15 -29 0 -78 22 -78 35 0 25 42 32 60 10z m65 5 c3 -5 1 -10 -4
-10 -6 0 -11 5 -11 10 0 6 2 10 4 10 3 0 8 -4 11 -10z m-1082 -29 c3 -14 1
-18 -9 -14 -8 3 -14 11 -14 19 0 21 17 17 23 -5z m1327 14 c0 -2 -14 -12 -32
-21 -33 -17 -226 -30 -196 -13 23 13 139 29 164 23 12 -3 31 -1 41 5 21 12 23
13 23 6z m470 -15 c0 -12 -8 -12 -35 0 -18 8 -17 9 8 9 15 1 27 -3 27 -9z
m-1690 -21 c0 -11 -4 -18 -10 -14 -5 3 -7 12 -3 20 7 21 13 19 13 -6z m1320
-79 c-1 -53 -3 -70 -10 -59 -11 19 -9 163 2 145 4 -6 8 -45 8 -86z m-890 47
c0 -24 -3 -28 -10 -17 -13 20 -13 63 0 55 6 -3 10 -21 10 -38z m1320 33 c18
-11 13 -16 -27 -25 -22 -4 -33 -3 -33 5 0 6 4 9 9 6 5 -3 11 1 15 9 6 17 15
19 36 5z m-123 -16 c-3 -3 -12 -4 -19 -1 -8 3 -5 6 6 6 11 1 17 -2 13 -5z
m-1032 -24 c-10 -11 -20 -18 -23 -15 -7 6 18 35 31 35 5 0 2 -9 -8 -20z m-643
0 c-24 -3 -60 -3 -80 1 -28 5 -16 7 43 7 66 0 72 -2 37 -8z m529 -37 c-8 -15
-10 -15 -11 -2 0 17 10 32 18 25 2 -3 -1 -13 -7 -23z m204 -2 c7 -12 -12 -24
-25 -16 -11 7 -4 25 10 25 5 0 11 -4 15 -9z m-1142 -8 c-7 -2 -21 -2 -30 0
-10 3 -4 5 12 5 17 0 24 -2 18 -5z m1097 -2 c0 -17 -18 -21 -24 -6 -3 9 0 15
9 15 8 0 15 -4 15 -9z m-900 -11 c0 -5 -2 -10 -4 -10 -3 0 -8 5 -11 10 -3 6
-1 10 4 10 6 0 11 -4 11 -10z m45 0 c-3 -5 -13 -10 -21 -10 -8 0 -14 5 -14 10
0 6 9 10 21 10 11 0 17 -4 14 -10z m1746 -7 c13 -16 12 -17 -3 -4 -10 7 -18
15 -18 17 0 8 8 3 21 -13z m149 7 c0 -5 -6 -10 -12 -11 -7 0 -34 -4 -60 -8
-27 -4 -48 -4 -48 0 0 9 24 16 75 22 17 2 33 5 38 6 4 0 7 -3 7 -9z m-1423
-22 c-3 -8 -6 -5 -6 6 -1 11 2 17 5 13 3 -3 4 -12 1 -19z m734 -22 c-6 -14
-15 -26 -21 -26 -7 0 -4 13 6 30 21 35 29 33 15 -4z m-1332 -9 c-19 -18 -60
-40 -65 -34 -3 2 9 19 26 37 22 24 34 30 42 22 8 -8 7 -15 -3 -25z m959 -13
c24 8 39 -9 16 -18 -8 -3 -12 -10 -9 -16 3 -5 1 -10 -4 -10 -6 0 -11 8 -11 18
-1 16 -2 16 -13 0 -9 -11 -22 -14 -40 -11 -32 6 -35 19 -6 26 16 4 19 11 14
29 l-6 23 19 -24 c13 -17 25 -21 40 -17z m1107 16 c3 -5 -1 -10 -9 -10 -9 0
-16 5 -16 10 0 6 4 10 9 10 6 0 13 -4 16 -10z m-1869 -21 c8 -14 -10 -11 -32
6 -18 13 -18 14 4 8 12 -3 25 -9 28 -14z m389 -9 c-4 -12 -9 -19 -12 -17 -3 3
-2 15 2 27 4 12 9 19 12 17 3 -3 2 -15 -2 -27z m476 18 l34 -12 -30 -6 c-29
-6 -55 4 -55 21 0 12 11 11 51 -3z m229 -8 c0 -5 -12 -10 -27 -10 -22 0 -25 2
-13 10 20 13 40 13 40 0z m380 0 c0 -5 -2 -10 -4 -10 -3 0 -8 5 -11 10 -3 6
-1 10 4 10 6 0 11 -4 11 -10z m-465 -10 c-3 -5 -18 -10 -33 -10 -21 0 -24 2
-12 10 20 13 53 13 45 0z m1315 -5 c10 -12 10 -15 -4 -15 -9 0 -16 7 -16 15 0
8 2 15 4 15 2 0 9 -7 16 -15z m45 -44 c-10 -16 -25 -3 -25 22 0 20 1 20 16 5
9 -9 13 -21 9 -27z m-2257 -11 c-1 -43 -12 -53 -21 -19 -5 17 10 59 20 59 2 0
2 -18 1 -40z m1124 -5 c-2 -14 -8 -28 -13 -31 -5 -3 -7 2 -4 10 3 9 7 23 10
31 7 24 13 17 7 -10z m125 -17 c-3 -7 -5 -2 -5 12 0 14 2 19 5 13 2 -7 2 -19
0 -25z m-97 -72 c-7 -7 -10 4 -9 30 1 39 1 39 10 9 5 -18 5 -33 -1 -39z m-200
33 c0 -4 -7 -6 -15 -3 -8 4 -15 10 -15 15 0 4 7 6 15 3 8 -4 15 -10 15 -15z
m1146 -13 c16 -2 31 -5 34 -5 3 -1 -2 -5 -10 -10 -8 -5 -35 -5 -60 -1 -25 4
-40 8 -33 9 7 0 10 8 6 17 -5 14 -3 15 14 6 11 -6 33 -13 49 -16z m-1734 -23
c-6 -10 -25 -31 -43 -48 -32 -30 -27 -20 20 43 26 33 40 37 23 5z m523 18 c3
-5 1 -12 -5 -16 -6 -4 -8 -11 -5 -16 10 -15 -12 -10 -26 7 -10 13 -10 17 2 25
18 11 26 11 34 0z m236 -3 c2 -31 8 -48 30 -80 13 -18 29 -36 34 -40 6 -4 6
-8 1 -8 -5 0 -3 -6 3 -13 6 -8 8 -16 5 -20 -12 -12 -34 6 -63 51 -28 45 -35
66 -32 105 1 19 21 24 22 5z m314 -8 c3 -5 1 -10 -4 -10 -6 0 -11 5 -11 10 0
6 2 10 4 10 3 0 8 -4 11 -10z m-645 -20 c0 -5 -6 -10 -14 -10 -8 0 -18 5 -21
10 -3 6 3 10 14 10 12 0 21 -4 21 -10z m708 -41 c23 -22 42 -44 42 -49 0 -5
12 -15 28 -22 17 -8 28 -22 30 -38 2 -14 -1 -20 -5 -15 -4 6 -20 18 -35 28
-16 10 -28 24 -28 32 0 8 -6 15 -13 15 -7 0 -27 20 -45 45 -39 56 -30 57 26 4z
m116 -9 c-6 -5 -24 21 -24 34 0 6 6 1 14 -10 8 -10 12 -21 10 -24z m-866 18
c-3 -7 -14 -14 -26 -16 -12 -2 -19 -8 -16 -14 4 -6 -1 -8 -12 -5 -11 3 -37 9
-59 13 -67 11 -70 21 -5 16 38 -3 66 0 73 7 15 15 50 14 45 -1z m-300 -35 c0
-21 -2 -23 -10 -9 -5 9 -6 21 -3 26 10 16 13 12 13 -17z m566 -22 c15 -17 15
-19 1 -25 -10 -3 -14 -2 -10 5 4 6 -1 17 -11 24 -11 8 -14 15 -8 15 6 0 19 -8
28 -19z m794 -16 c42 -18 51 -29 32 -40 -5 -3 -10 0 -10 7 0 7 -11 14 -25 14
-27 2 -55 20 -55 36 0 5 3 8 8 6 4 -3 26 -13 50 -23z m-343 -19 c18 -19 42
-51 53 -72 21 -42 38 -149 22 -139 -6 4 -10 15 -10 25 0 22 -71 162 -94 185
-16 16 -21 35 -11 35 3 0 21 -15 40 -34z m-885 14 c0 -5 -5 -10 -11 -10 -5 0
-7 5 -4 10 3 6 8 10 11 10 2 0 4 -4 4 -10z m570 -45 c-11 -13 -10 -14 5 -9 13
5 16 3 13 -7 -3 -8 -13 -15 -24 -15 -10 -1 -23 -3 -29 -4 -24 -6 -38 3 -15 9
16 4 25 14 25 26 0 24 16 38 29 25 6 -6 4 -15 -4 -25z m-104 -11 c18 -14 18
-15 -6 -8 -31 8 -50 24 -29 24 8 0 24 -7 35 -16z m626 -71 c25 -86 29 -113 20
-113 -15 0 -30 22 -25 36 3 8 1 14 -5 14 -6 0 -12 24 -14 53 -2 28 -8 61 -13
72 -7 17 -6 18 6 8 8 -7 22 -38 31 -70z m-1683 12 c0 -5 -4 -3 -9 5 -5 8 -9
22 -9 30 0 16 17 -16 18 -35z m1781 -32 c-11 -17 -11 -17 -6 0 3 10 6 24 7 30
0 9 2 9 5 0 3 -7 0 -20 -6 -30z m-403 5 c-3 -8 -6 -5 -6 6 -1 11 2 17 5 13 3
-3 4 -12 1 -19z m-87 -33 c-7 -8 -23 -15 -36 -15 -15 0 -24 6 -24 15 0 11 11
15 36 15 31 0 35 -2 24 -15z m97 -7 c-3 -8 -6 -5 -6 6 -1 11 2 17 5 13 3 -3 4
-12 1 -19z m-1352 -55 c4 -21 3 -33 -4 -33 -6 0 -11 3 -11 8 0 4 -5 25 -10 46
-7 32 -6 37 5 25 7 -8 16 -29 20 -46z m45 47 c0 -5 -4 -10 -10 -10 -5 0 -10 5
-10 10 0 6 5 10 10 10 6 0 10 -4 10 -10z m1721 -115 c-11 -27 -20 -44 -21 -37
0 7 7 29 15 49 8 19 16 52 17 72 l1 36 4 -35 c2 -20 -5 -57 -16 -85z m-392 57
c1 -7 -3 -10 -9 -7 -5 3 -10 18 -9 33 0 24 1 25 9 7 5 -11 9 -26 9 -33z m187
-77 c-14 -31 -26 -22 -24 19 1 30 3 32 18 19 14 -12 15 -20 6 -38z m-189 13
c-3 -7 -5 -2 -5 12 0 14 2 19 5 13 2 -7 2 -19 0 -25z m-27 -18 c0 -11 -4 -20
-10 -20 -5 0 -10 9 -10 20 0 11 5 20 10 20 6 0 10 -9 10 -20z m-1000 6 c0 -3
-4 -8 -10 -11 -5 -3 -10 -1 -10 4 0 6 5 11 10 11 6 0 10 -2 10 -4z m407 -18
c-3 -8 -6 -5 -6 6 -1 11 2 17 5 13 3 -3 4 -12 1 -19z m441 -3 c-3 -3 -9 2 -12
12 -6 14 -5 15 5 6 7 -7 10 -15 7 -18z m425 2 c3 -8 1 -20 -4 -28 -6 -10 -9
-7 -9 14 0 29 5 35 13 14z m-84 -78 c-6 -24 -12 -51 -12 -59 0 -8 -6 -24 -13
-35 -8 -11 -14 -29 -14 -40 -1 -11 -7 -31 -15 -45 -12 -22 -14 -23 -20 -7 -4
9 -4 29 0 45 8 35 78 192 83 188 2 -2 -2 -24 -9 -47z m131 1 c0 -16 -4 -30
-10 -30 -5 0 -10 14 -10 30 0 17 5 30 10 30 6 0 10 -13 10 -30z m-832 -114 c3
-12 -1 -17 -10 -14 -7 3 -15 13 -16 22 -3 12 1 17 10 14 7 -3 15 -13 16 -22z
m718 -45 c0 -27 -4 -37 -13 -34 -16 6 -16 14 -3 47 13 36 18 32 16 -13z m-341
-55 c26 -71 16 -105 -11 -39 -17 40 -32 123 -20 112 4 -4 18 -36 31 -73z
m-595 49 c0 -8 -4 -15 -10 -15 -5 0 -10 7 -10 15 0 8 5 15 10 15 6 0 10 -7 10
-15z m90 -22 c0 -16 -4 -33 -8 -40 -4 -6 -7 6 -7 28 0 21 3 39 7 39 5 0 8 -12
8 -27z m-104 -50 c-11 -11 -19 6 -11 24 8 17 8 17 12 0 3 -10 2 -21 -1 -24z
m860 -50 c-3 -16 -12 -58 -20 -94 -18 -81 -68 -211 -84 -217 -19 -6 -14 31 14
104 31 79 58 176 63 227 1 4 8 7 17 7 13 0 15 -6 10 -27z m-606 -23 c0 -5 -4
-10 -10 -10 -5 0 -10 5 -10 10 0 6 5 10 10 10 6 0 10 -4 10 -10z m330 -27 c0
-7 -9 -13 -19 -13 -23 0 -31 -19 -31 -72 0 -59 -6 -44 -14 33 l-7 66 35 -1
c22 -1 36 -6 36 -13z m369 3 c9 -11 9 -15 -1 -19 -9 -3 -7 -7 6 -12 13 -6 21
-3 28 9 12 21 28 12 21 -12 -9 -35 -83 2 -83 40 0 13 17 9 29 -6z m-529 -116
c0 -5 -10 -10 -22 -10 -19 0 -20 2 -8 10 19 13 30 13 30 0z m-350 -4 c0 -3 -4
-8 -10 -11 -5 -3 -10 -1 -10 4 0 6 5 11 10 11 6 0 10 -2 10 -4z m640 -44 c0
-15 -2 -15 -10 -2 -13 20 -13 33 0 25 6 -3 10 -14 10 -23z m-970 -12 c0 -5 6
-7 14 -4 8 3 17 0 21 -6 4 -7 -2 -14 -14 -17 -11 -3 -18 -9 -15 -14 3 -5 0 -9
-5 -9 -6 0 -11 9 -11 21 0 11 -4 17 -10 14 -5 -3 -10 0 -10 7 0 10 -2 10 -9
-1 -7 -10 -13 -11 -30 -2 -11 7 -21 13 -21 14 0 1 20 3 45 5 25 1 45 -2 45 -8z
m1425 1 c3 -5 1 -12 -5 -16 -5 -3 -10 1 -10 9 0 18 6 21 15 7z m-2085 -31 c0
-5 -4 -10 -10 -10 -5 0 -10 5 -10 10 0 6 5 10 10 10 6 0 10 -4 10 -10z m470
-11 c0 -6 -4 -7 -10 -4 -5 3 -10 11 -10 16 0 6 5 7 10 4 6 -3 10 -11 10 -16z
m1717 -12 c7 -5 22 -7 34 -4 14 4 22 -1 28 -15 5 -14 10 -17 15 -10 14 22 111
-7 273 -83 104 -50 193 -81 311 -110 50 -12 69 -20 60 -26 -9 -6 -7 -9 10 -10
35 -2 40 -3 48 -11 4 -5 12 -8 18 -8 6 0 4 5 -4 10 -12 8 -11 10 8 10 12 0 22
-6 22 -12 0 -10 2 -10 9 0 4 8 19 12 32 10 24 -4 23 -5 -6 -18 -38 -18 -145
-16 -199 3 -46 16 -126 33 -201 42 -27 4 -66 8 -85 10 -19 3 -53 10 -75 16
-22 6 -58 15 -80 21 -62 16 -174 58 -235 88 -56 29 -94 40 -142 43 -14 1 -30
6 -34 10 -15 14 19 26 65 22 49 -4 73 8 64 31 -4 12 0 14 23 8 16 -4 35 -11
41 -17z m-2171 -12 c-3 -9 -10 -13 -16 -10 -7 4 -7 -2 -1 -18 6 -16 6 -28 -2
-36 -8 -8 -5 -11 12 -11 19 0 22 -4 17 -22 -13 -43 -15 -78 -6 -78 6 0 10 -5
10 -11 0 -5 -4 -7 -10 -4 -5 3 -10 -1 -10 -10 0 -12 -6 -15 -20 -10 -16 5 -19
3 -13 -12 4 -10 15 -27 25 -37 22 -24 22 -28 1 -42 -15 -9 -18 -7 -20 14 0 14
-8 29 -17 34 -18 10 -21 43 -6 53 8 5 7 12 -1 22 -10 12 -10 19 0 35 11 18 11
20 -3 15 -12 -5 -16 0 -16 17 0 14 -6 27 -12 29 -8 3 -5 6 6 6 13 1 17 6 13
20 -3 13 1 21 14 24 11 3 19 12 19 21 0 9 7 16 15 16 8 0 15 5 15 12 0 6 3 9
6 5 4 -3 4 -13 0 -22z m-256 -5 c-8 -14 -8 -20 0 -20 6 0 8 -5 5 -10 -4 -6
-13 -4 -23 6 -15 15 -14 17 3 30 25 19 28 18 15 -6z m295 0 c3 -5 2 -10 -4
-10 -5 0 -13 5 -16 10 -3 6 -2 10 4 10 5 0 13 -4 16 -10z m412 -12 c7 -6 18
-6 24 -2 9 5 10 2 6 -12 -7 -18 -7 -18 8 0 9 12 15 14 15 7 0 -7 -13 -26 -29
-42 -26 -26 -32 -28 -55 -17 -20 8 -26 19 -26 43 0 17 3 34 6 38 7 6 33 -1 51
-15z m948 12 c3 -5 1 -10 -4 -10 -6 0 -11 5 -11 10 0 6 2 10 4 10 3 0 8 -4 11
-10z m-1045 -10 c0 -5 -5 -10 -11 -10 -5 0 -7 5 -4 10 3 6 8 10 11 10 2 0 4
-4 4 -10z m1073 -22 c-23 -26 -20 -50 4 -41 11 4 14 2 9 -5 -9 -16 -43 -15
-52 0 -5 8 -12 2 -20 -17 l-13 -30 -1 33 c0 18 4 31 9 28 10 -7 51 27 51 43 0
6 8 11 17 11 14 0 14 -3 -4 -22z m-1113 2 c0 -5 -2 -10 -4 -10 -3 0 -8 5 -11
10 -3 6 -1 10 4 10 6 0 11 -4 11 -10z m810 -36 c0 -32 -15 -23 -29 16 -9 28
-9 29 9 20 12 -6 20 -21 20 -36z m-1096 19 c6 -14 9 -15 15 -4 5 8 11 9 15 3
10 -16 -24 -23 -40 -8 -16 17 -18 26 -5 26 5 0 12 -8 15 -17z m206 7 c0 -5 -5
-10 -11 -10 -5 0 -7 5 -4 10 3 6 8 10 11 10 2 0 4 -4 4 -10z m-530 -14 c0 -7
-6 -19 -14 -25 -11 -9 -12 -6 -8 14 5 26 22 35 22 11z m500 4 c0 -5 -5 -10
-11 -10 -5 0 -7 5 -4 10 3 6 8 10 11 10 2 0 4 -4 4 -10z m155 0 c3 -5 -1 -10
-10 -10 -9 0 -13 5 -10 10 3 6 8 10 10 10 2 0 7 -4 10 -10z m1326 -13 c-10 -9
-11 -8 -5 6 3 10 9 15 12 12 3 -3 0 -11 -7 -18z m176 17 c-3 -3 -12 -4 -19 -1
-8 3 -5 6 6 6 11 1 17 -2 13 -5z m113 -1 c0 -1 -8 -6 -17 -11 -12 -6 -29 -5
-48 4 -30 12 -30 12 17 11 27 -1 48 -3 48 -4z m-1750 -33 c12 -8 11 -10 -7
-10 -13 0 -23 5 -23 10 0 13 11 13 30 0z m770 -66 c0 -52 -3 -64 -16 -64 -14
0 -15 7 -10 38 3 20 6 52 6 70 0 20 4 31 10 27 6 -3 10 -35 10 -71z m-650 50
c0 -6 -11 -11 -24 -11 -14 0 -27 5 -29 11 -3 6 7 11 24 11 16 0 29 -5 29 -11z
m1410 8 c0 -4 -5 -13 -10 -18 -8 -8 3 -9 37 -4 26 4 60 4 76 -1 15 -4 34 -6
42 -3 7 3 16 1 19 -5 3 -5 22 -8 41 -5 19 2 35 0 35 -5 0 -6 12 -6 31 -1 19 6
38 6 49 0 10 -5 51 -15 91 -21 41 -6 84 -15 97 -20 28 -11 20 -29 -12 -29 -12
0 -27 -5 -33 -11 -7 -7 -22 -7 -51 0 -22 6 -76 16 -119 21 -203 25 -241 30
-285 38 -25 5 -52 6 -59 1 -17 -10 -29 8 -29 44 0 25 3 27 40 27 22 0 40 -4
40 -8z m-1362 -27 c0 -14 -6 -25 -14 -25 -11 0 -11 5 -2 25 6 14 12 25 13 25
2 0 3 -11 3 -25z m32 8 c0 -5 -5 -15 -10 -23 -7 -12 -9 -10 -7 8 1 19 17 33
17 15z m402 -15 c-7 -7 -12 -8 -12 -2 0 14 12 26 19 19 2 -3 -1 -11 -7 -17z
m-1132 -9 c0 -11 -4 -18 -9 -14 -5 3 -12 1 -16 -5 -3 -5 -2 -10 4 -10 5 0 0
-21 -11 -47 -20 -46 -31 -93 -22 -93 3 0 9 12 15 27 7 20 12 24 18 14 6 -8 11
-9 15 -3 3 6 2 13 -4 17 -5 3 -10 14 -9 23 0 11 3 12 6 5 7 -18 23 -16 23 1 0
8 5 18 12 22 8 5 9 2 5 -9 -3 -10 -2 -17 3 -17 6 0 10 -4 10 -10 0 -5 -6 -10
-14 -10 -16 0 -28 -46 -12 -48 15 -1 78 -25 95 -36 11 -7 11 -10 -3 -18 -12
-6 -22 -5 -32 3 -12 10 -19 8 -37 -9 -18 -18 -19 -24 -8 -34 11 -10 14 -10 18
0 7 19 23 14 23 -8 0 -11 5 -20 11 -20 6 0 9 7 6 15 -4 8 -2 17 3 20 9 5 14
-7 12 -26 -1 -4 10 -9 24 -12 26 -5 36 5 41 38 5 29 4 35 -3 86 -7 51 5 82 37
99 17 10 19 8 15 -12 -8 -40 -15 -114 -10 -100 8 18 22 15 29 -9 4 -12 12 -18
21 -15 8 3 14 -1 14 -9 0 -14 17 -20 47 -16 8 1 10 -5 7 -14 -7 -18 -16 -17
136 -20 130 -3 300 -14 312 -21 3 -2 8 3 10 13 2 9 13 17 26 18 16 1 19 -2 12
-9 -14 -14 -12 -26 5 -26 8 0 15 7 15 15 0 12 5 13 18 7 16 -8 185 -3 457 15
72 4 524 8 1005 9 481 0 884 2 895 3 10 1 25 7 32 13 22 18 104 29 120 17 9
-8 13 -8 13 0 0 10 75 9 86 -2 9 -9 -8 -35 -21 -31 -7 3 -16 0 -20 -6 -5 -8
-11 -8 -21 1 -11 9 -14 9 -14 -1 0 -9 -13 -11 -44 -8 -24 3 -50 2 -57 -3 -7
-4 -19 -3 -26 3 -8 6 -13 7 -13 1 0 -6 -12 -8 -27 -6 -27 4 -27 4 -9 -11 16
-13 18 -20 8 -41 -6 -14 -16 -25 -21 -25 -5 0 -12 -8 -14 -17 -4 -16 -5 -16
-6 -1 0 9 4 20 9 23 16 10 11 28 -6 21 -8 -3 -12 -2 -9 4 9 14 -1 12 -34 -5
-27 -13 -47 -42 -37 -52 8 -8 26 8 26 23 0 8 8 14 17 14 13 0 14 -3 5 -12 -14
-14 -16 -42 -2 -33 6 3 10 2 10 -3 0 -6 -7 -12 -15 -16 -8 -3 -15 -15 -15 -26
0 -11 -4 -20 -10 -20 -5 0 -10 7 -10 16 0 13 -7 15 -35 10 -28 -6 -34 -4 -29
8 3 8 14 18 25 21 18 6 29 55 12 55 -12 0 -73 -72 -68 -80 3 -5 -2 -10 -10
-14 -10 -4 -15 1 -15 16 0 18 -4 20 -35 15 -19 -3 -35 -2 -35 4 0 5 -8 9 -17
9 -15 0 -16 2 -3 10 8 5 33 6 56 3 26 -3 44 -1 48 6 7 10 -48 17 -94 13 -8 -1
-24 -3 -35 -4 -11 -1 -23 -6 -27 -12 -4 -6 -13 -5 -23 4 -14 12 -18 12 -26 -1
-5 -8 -9 -10 -9 -5 0 4 -15 -3 -32 -16 -41 -31 -88 -44 -98 -27 -6 9 -20 9
-56 1 -73 -17 -91 -18 -95 -7 -2 6 14 11 35 12 22 1 44 7 50 13 13 13 53 13
61 0 8 -13 55 -13 55 1 0 5 -4 8 -9 5 -15 -10 -40 5 -34 20 6 16 -32 20 -42 4
-4 -6 -12 -7 -18 -3 -7 5 -111 9 -232 10 -666 6 -886 14 -912 35 -7 6 -13 6
-13 1 0 -8 -210 -8 -392 1 -49 2 -88 0 -88 -5 0 -5 1 -9 3 -9 9 0 124 -22 140
-26 9 -3 17 -10 17 -15 0 -6 -29 -9 -75 -7 -84 3 -98 -9 -34 -31 l42 -14 -32
-13 c-22 -9 -45 -11 -76 -5 -50 9 -59 1 -17 -16 58 -24 -100 0 -173 26 -234
82 -318 97 -328 60 -4 -14 0 -19 15 -19 10 0 16 -5 13 -10 -3 -6 2 -13 12 -16
105 -36 327 -169 318 -191 -2 -6 1 -14 8 -16 7 -2 9 -7 5 -11 -3 -4 -16 -1
-27 6 -15 9 -24 10 -29 2 -4 -6 -16 -14 -27 -18 -13 -5 -15 -10 -8 -13 32 -12
-37 -70 -76 -64 -7 1 -10 -2 -6 -8 3 -6 -1 -14 -9 -17 -9 -3 -16 -12 -16 -19
0 -15 -23 -21 -117 -30 -66 -7 -101 -24 -89 -44 5 -7 12 -9 19 -3 16 13 87 23
87 13 0 -5 -15 -14 -32 -21 -49 -18 -61 -25 -66 -40 -3 -8 0 -10 8 -5 7 4 106
8 221 9 175 1 211 4 219 16 8 12 10 12 10 1 0 -12 40 -13 256 -7 141 4 292 11
334 17 75 9 182 14 245 10 59 -3 -1 -21 -92 -27 -48 -3 -91 -8 -96 -11 -14 -8
-630 -26 -870 -24 -157 1 -236 -2 -232 -9 3 -5 19 -10 35 -10 17 0 46 -14 73
-34 39 -30 49 -33 98 -30 l54 3 -56 -13 c-74 -17 -116 -44 -161 -104 -36 -47
-50 -81 -28 -67 6 3 10 2 10 -4 0 -5 -5 -13 -10 -16 -30 -19 -60 -87 -60 -136
0 -45 -2 -50 -15 -39 -8 7 -15 24 -15 39 -1 24 -2 24 -16 -9 -10 -23 -14 -55
-12 -93 3 -35 1 -54 -5 -48 -14 14 -26 87 -27 160 0 35 -4 81 -10 102 -25 98
-29 118 -36 174 -3 33 -8 63 -11 68 -2 4 9 10 26 13 17 4 36 13 42 20 15 18
29 9 30 -19 0 -15 2 -17 6 -7 3 8 12 21 21 27 21 17 17 88 -8 130 -11 19 -20
39 -20 44 0 16 29 41 40 34 13 -8 13 0 -5 65 -17 64 -19 116 -5 125 5 3 7 0 5
-8 -8 -19 20 -83 30 -68 4 7 4 24 -1 39 -10 38 -12 49 -21 127 -7 60 -11 70
-28 71 -11 1 -29 5 -40 9 -16 5 -17 5 -5 -4 8 -5 11 -13 7 -17 -3 -4 -13 -2
-20 4 -17 14 -27 6 -27 -22 0 -17 2 -18 10 -6 9 15 9 16 25 -35 5 -17 -16 -20
-31 -5 -5 5 -25 11 -44 12 -30 3 -35 0 -38 -21 -3 -15 0 -21 8 -16 6 4 2 -10
-9 -31 -11 -20 -18 -41 -16 -45 3 -4 -2 -10 -11 -13 -14 -5 -15 0 -10 41 13
85 25 123 40 117 8 -3 16 -1 19 3 6 10 -7 35 -17 34 -20 -3 -23 1 -18 25 4 24
2 26 -19 19 -16 -4 -20 -3 -10 3 19 14 1 21 -42 17 -20 -1 -40 1 -43 6 -9 16
-33 10 -44 -12 -11 -19 -9 -20 22 -17 36 3 35 9 29 -104 -1 -29 -21 -40 -21
-12 0 8 -4 13 -9 10 -5 -3 -7 -25 -5 -49 3 -28 2 -36 -4 -23 -17 40 -21 -3 -7
-79 8 -42 15 -94 15 -116 0 -21 4 -39 9 -39 4 0 11 -37 14 -82 4 -46 9 -101
12 -123 3 -22 3 -34 -1 -27 -3 6 -9 10 -13 7 -20 -11 -78 393 -64 444 4 14 1
27 -8 33 -11 7 -11 11 -1 15 16 6 15 35 -3 59 -18 24 -19 45 -2 42 8 -2 13 12
15 40 2 32 0 42 -12 42 -8 0 -19 -7 -24 -16 -5 -9 -14 -14 -20 -10 -19 12 0
46 39 68 22 12 38 27 36 32 -6 18 -47 19 -73 2 -13 -9 -24 -12 -24 -7 0 5 5
13 10 16 6 4 8 10 5 15 -3 5 6 40 20 79 14 38 24 74 23 79 -4 12 23 52 34 52
4 0 8 -9 8 -21z m211 -22 c-8 -8 -11 -7 -11 4 0 20 13 34 18 19 3 -7 -1 -17
-7 -23z m-61 14 c0 -5 -7 -12 -16 -15 -14 -5 -15 -4 -4 9 14 17 20 19 20 6z
m1240 -43 c0 -9 -4 -19 -8 -22 -4 -2 -8 11 -8 30 0 20 3 29 8 21 4 -6 8 -20 8
-29z m-1360 28 c0 -2 -8 -10 -17 -17 -16 -13 -17 -12 -4 4 13 16 21 21 21 13z
m3350 -16 c0 -5 -4 -10 -9 -10 -6 0 -13 5 -16 10 -3 6 1 10 9 10 9 0 16 -4 16
-10z m-1920 -28 c0 -15 -2 -15 -10 -2 -13 20 -13 33 0 25 6 -3 10 -14 10 -23z
m1945 -12 c3 -5 2 -10 -4 -10 -5 0 -13 5 -16 10 -3 6 -2 10 4 10 5 0 13 -4 16
-10z m-3360 -50 c-3 -5 -11 -10 -16 -10 -6 0 -7 5 -4 10 3 6 11 10 16 10 6 0
7 -4 4 -10z m305 -40 c0 -5 -5 -10 -11 -10 -5 0 -7 5 -4 10 3 6 8 10 11 10 2
0 4 -4 4 -10z m3180 -58 c0 -7 -4 -10 -10 -7 -5 3 -10 16 -10 28 0 18 2 19 10
7 5 -8 10 -21 10 -28z m-3674 -123 l-23 -74 -5 60 c-4 66 0 95 13 95 5 0 6
-15 2 -32 -3 -19 -2 -30 3 -25 10 9 11 14 13 49 1 15 4 19 11 12 7 -7 2 -35
-14 -85z m3529 53 c-8 -8 -25 10 -25 26 0 13 2 13 14 -4 8 -10 13 -21 11 -22z
m142 -4 c-3 -8 -6 -5 -6 6 -1 11 2 17 5 13 3 -3 4 -12 1 -19z m-187 -26 c0
-25 7 -48 20 -62 22 -25 25 -47 11 -69 -5 -8 -7 -20 -4 -28 7 -18 33 -17 33 2
0 26 15 16 16 -10 2 -19 -3 -25 -18 -25 -15 0 -18 -5 -13 -20 17 -54 26 -157
18 -205 -3 -21 -11 -31 -23 -32 -12 -1 -16 4 -13 16 2 9 -3 60 -13 112 -9 51
-18 128 -20 169 -2 41 -5 101 -8 133 -2 31 0 57 5 57 5 0 9 -17 9 -38z m90 3
c0 -13 5 -27 10 -30 6 -4 8 -11 4 -16 -3 -5 -1 -16 5 -23 7 -8 11 -18 9 -22
-1 -5 4 -20 11 -33 9 -16 11 -40 6 -78 -4 -32 -2 -59 3 -66 6 -7 12 -28 14
-47 l4 -35 8 29 c6 19 5 36 -3 48 -9 14 -8 25 4 48 9 17 17 30 18 30 2 0 2
-66 1 -147 -2 -95 -6 -149 -13 -151 -6 -2 -11 -19 -11 -38 0 -24 -5 -34 -15
-34 -8 0 -15 -5 -15 -11 0 -6 7 -9 15 -5 18 6 19 -3 5 -40 -6 -15 -14 -24 -17
-20 -7 7 -16 65 -16 112 0 22 -5 30 -13 27 -17 -6 -27 -39 -18 -54 4 -8 3 -9
-4 -5 -7 4 -12 16 -12 27 0 11 -5 30 -11 41 -7 13 -7 18 -1 14 6 -4 15 1 20
10 6 10 16 15 25 11 12 -4 15 1 13 26 -1 18 0 62 4 100 4 52 3 66 -7 62 -10
-3 -12 5 -7 33 4 29 -1 51 -24 97 -29 59 -33 93 -6 58 12 -16 13 -16 14 -1 0
9 -6 21 -13 25 -8 4 -17 22 -20 40 -5 26 -3 31 8 26 11 -4 13 -1 8 13 -4 12
-3 15 5 10 7 -4 12 -18 12 -31z m97 -77 c-2 -13 -4 -3 -4 22 0 25 2 35 4 23 2
-13 2 -33 0 -45z m-3604 9 c-8 -45 -23 -58 -23 -20 0 39 9 65 21 58 4 -3 6
-20 2 -38z m202 34 c3 -5 1 -12 -5 -16 -5 -3 -10 1 -10 9 0 18 6 21 15 7z
m2415 -11 c0 -5 -5 -10 -11 -10 -5 0 -7 5 -4 10 3 6 8 10 11 10 2 0 4 -4 4
-10z m299 -4 c10 -12 8 -13 -8 -9 -12 3 -21 9 -21 14 0 14 16 11 29 -5z
m-1605 -23 c-1 -16 -3 -30 -4 -33 -1 -3 -1 -13 0 -23 1 -10 -4 -25 -10 -33
-14 -16 -40 -19 -40 -4 0 6 10 10 23 10 17 0 19 2 8 9 -8 5 -21 7 -29 4 -8 -3
-18 0 -22 7 -5 8 5 23 28 44 l35 31 -34 6 -34 6 40 2 c39 1 41 -1 39 -26z
m1999 6 c-6 -6 -9 -18 -6 -25 3 -8 0 -14 -6 -14 -6 0 -11 11 -11 25 0 17 6 25
17 25 13 0 14 -3 6 -11z m-1830 -16 c-7 -2 -19 -2 -25 0 -7 3 -2 5 12 5 14 0
19 -2 13 -5z m1102 -21 c16 -12 21 -23 15 -27 -6 -4 -10 -12 -9 -18 3 -25 -1
-37 -13 -37 -7 -1 -26 -7 -43 -15 -27 -14 -28 -15 -5 -11 14 2 34 7 45 11 l20
8 -20 -16 c-23 -19 -75 -22 -75 -6 0 8 -15 10 -46 6 -36 -4 -44 -2 -40 9 4 10
-2 14 -19 14 -14 0 -25 5 -25 10 0 6 -8 10 -19 10 -13 0 -18 7 -17 23 1 12 -2
27 -7 34 -6 8 1 13 25 17 106 18 201 13 233 -12z m672 8 c-1 -11 -4 -20 -8
-20 -4 0 -14 -3 -23 -6 -21 -8 -21 10 0 30 21 22 33 20 31 -4z m-327 0 c0 -5
-5 -10 -11 -10 -5 0 -7 5 -4 10 3 6 8 10 11 10 2 0 4 -4 4 -10z m-1722 -22
c-7 -19 -38 -22 -38 -4 0 10 9 16 21 16 12 0 19 -5 17 -12z m306 -3 c-4 -8 -1
-15 5 -15 6 0 11 5 11 11 0 6 27 9 73 9 39 -1 104 1 142 6 62 6 69 5 57 -8 -8
-10 -39 -18 -90 -22 -42 -4 -96 -11 -119 -16 -22 -6 -76 -14 -120 -19 -43 -5
-88 -12 -101 -15 -13 -3 -20 -1 -17 5 4 5 15 9 26 9 11 0 19 7 19 16 0 11 6
14 20 9 23 -7 26 4 8 24 -7 8 -1 6 14 -4 17 -10 35 -14 45 -10 12 5 14 9 6 12
-20 7 -15 23 7 23 13 0 18 -5 14 -15z m1146 -1 c0 -2 -9 -4 -21 -4 -11 0 -18
4 -14 10 5 8 35 3 35 -6z m-2724 -66 c2 -42 -1 -65 -11 -75 -13 -12 -14 -9
-11 29 2 24 4 61 5 82 2 60 15 33 17 -36z m1204 62 c8 -5 12 -12 8 -15 -9 -9
-59 6 -52 16 7 12 25 11 44 -1z m-1113 -37 c-3 -10 -5 -4 -5 12 0 17 2 24 5
18 2 -7 2 -21 0 -30z m-37 13 c0 -8 -4 -18 -10 -21 -5 -3 -10 3 -10 14 0 12 5
21 10 21 6 0 10 -6 10 -14z m2290 4 c-19 -5 -107 -12 -195 -15 -88 -4 -203
-13 -255 -21 -154 -23 -190 -14 -45 10 72 12 177 24 235 25 58 1 107 4 109 7
2 2 45 4 95 3 71 -1 83 -3 56 -9z m1016 -3 c17 6 20 -27 4 -43 -6 -6 -13 -42
-16 -80 -9 -119 -13 -134 -35 -134 -17 0 -18 3 -8 21 6 12 13 49 14 83 2 34 6
78 9 98 7 37 7 37 -23 33 -23 -2 -31 1 -31 11 0 10 6 13 18 10 9 -3 24 -1 32
4 9 6 16 6 18 0 2 -5 10 -6 18 -3z m-2181 -17 c-3 -5 -13 -10 -21 -10 -8 0
-12 5 -9 10 3 6 13 10 21 10 8 0 12 -4 9 -10z m-687 -19 c3 -8 -1 -12 -9 -9
-7 2 -15 10 -17 17 -3 8 1 12 9 9 7 -2 15 -10 17 -17z m759 13 c-3 -3 -12 -4
-19 -1 -8 3 -5 6 6 6 11 1 17 -2 13 -5z m152 -28 c-2 -2 -20 -7 -39 -11 l-35
-6 30 19 c17 11 34 16 39 11 5 -5 8 -10 5 -13z m-177 -18 c-7 -7 -10 -5 -7 8
5 29 6 30 12 16 3 -8 1 -18 -5 -24z m432 22 c-12 -12 -151 -30 -160 -21 -3 3
25 11 63 17 93 16 109 16 97 4z m1634 -15 c1 -14 -2 -25 -6 -25 -4 0 -8 11 -8
25 -2 33 11 33 14 0z m-2225 8 c-7 -2 -21 -2 -30 0 -10 3 -4 5 12 5 17 0 24
-2 18 -5z m1347 -8 c-5 -6 -7 -14 -5 -17 3 -3 -4 -5 -15 -4 -11 0 -20 4 -20 9
0 4 0 11 0 16 0 5 11 9 25 9 19 0 23 -4 15 -13z m-2046 -10 c3 -8 1 -15 -4
-15 -6 0 -10 7 -10 15 0 8 2 15 4 15 2 0 6 -7 10 -15z m761 5 c3 -5 2 -10 -4
-10 -5 0 -13 5 -16 10 -3 6 -2 10 4 10 5 0 13 -4 16 -10z m2259 -55 c4 -32 3
-46 -4 -39 -5 5 -12 32 -15 59 -4 31 -3 46 3 40 5 -5 12 -32 16 -60z m-3206
-35 l1 -55 -14 64 c-8 35 -12 69 -8 74 10 16 20 -23 21 -83z m2325 69 c6 6 15
11 19 11 13 0 3 -41 -12 -50 -8 -5 -11 -12 -7 -16 10 -10 63 10 60 23 -3 16
43 3 66 -18 11 -10 25 -19 32 -19 22 0 79 -42 72 -52 -4 -7 1 -9 15 -6 12 4
27 -1 36 -11 15 -16 49 -35 121 -66 38 -17 104 -78 146 -137 28 -38 23 -48 -6
-13 l-24 30 -2 -30 -1 -30 -9 32 c-5 18 -14 35 -20 39 -7 4 -7 -1 1 -15 6 -12
8 -30 5 -41 -3 -10 -2 -21 3 -24 5 -3 9 -25 9 -48 0 -32 -2 -38 -8 -23 -6 16
-8 13 -6 -12 1 -18 5 -33 9 -33 4 0 8 -7 8 -15 0 -8 -7 -15 -16 -15 -12 0 -15
-9 -13 -42 1 -24 6 -50 11 -60 12 -24 -24 -128 -45 -128 -5 0 -4 7 3 15 14 17
5 106 -16 148 -16 29 -50 37 -72 15 -9 -9 -12 -9 -12 -1 0 7 5 15 10 18 15 9
12 25 -5 25 -8 0 -15 -7 -15 -15 0 -8 -4 -15 -9 -15 -14 0 -21 26 -10 37 6 6
2 16 -11 28 -18 16 -20 17 -26 1 -4 -10 -2 -22 4 -28 8 -8 9 -15 1 -25 -9 -10
-8 -13 5 -13 21 0 22 -43 1 -60 -13 -10 -15 -9 -16 11 -1 13 -1 28 0 32 1 4
-5 10 -12 13 -10 3 -12 18 -7 54 4 28 2 50 -2 50 -13 0 -40 -70 -34 -86 4 -11
-7 -14 -52 -12 -31 0 -43 3 -27 5 18 2 36 13 44 26 11 18 11 20 0 10 -17 -16
-30 -17 -27 -1 2 7 -7 14 -19 16 -15 2 -20 8 -16 19 5 13 1 15 -21 9 -18 -4
-32 -2 -41 8 -21 21 -20 22 30 36 60 17 48 30 -27 30 -52 0 -61 3 -65 21 -3
11 -11 18 -19 15 -20 -8 -27 12 -11 28 11 12 167 46 208 46 5 0 7 5 4 11 -7
11 -164 1 -257 -17 -10 -1 -20 1 -22 5 -7 10 143 61 178 61 14 0 26 5 26 10 0
6 7 10 15 10 8 0 15 5 15 11 0 6 -8 8 -17 5 -10 -3 -24 -2 -31 2 -11 8 -33 6
-182 -12 l-55 -7 22 20 c14 11 31 17 43 14 11 -3 32 -1 48 5 15 6 39 13 55 16
15 4 27 11 27 17 0 8 -16 9 -52 4 -29 -4 -75 -7 -101 -7 -42 1 -47 -2 -42 -18
3 -10 -1 -25 -10 -34 -9 -9 -13 -22 -9 -28 4 -7 -1 -5 -11 4 -15 14 -16 20 -5
32 7 9 8 16 2 16 -5 0 -15 -6 -21 -14 -7 -8 -20 -13 -29 -11 -9 2 -19 4 -21 4
-3 1 4 7 15 15 11 8 15 18 10 23 -5 4 -11 2 -13 -4 -7 -21 -44 -15 -50 7 -3
11 -11 20 -19 20 -17 0 -29 -20 -12 -21 7 0 4 -4 -7 -8 -12 -5 -23 -4 -27 3
-5 8 -13 8 -28 -1 -26 -17 -35 -16 -20 2 6 8 9 18 6 23 -3 5 3 17 14 27 11 10
20 24 20 32 0 10 6 12 19 8 11 -3 22 -1 26 5 3 5 16 10 28 10 30 -1 61 -25 51
-41 -4 -8 -3 -10 5 -5 6 4 19 2 27 -5 13 -10 17 -10 24 1 5 8 6 18 4 22 -3 4
11 8 30 8 29 0 36 -4 36 -20 0 -13 5 -18 15 -14 8 3 14 9 13 12 -2 19 4 22 22
12 26 -14 132 -22 125 -9 -8 11 -3 11 29 -1 22 -8 26 -7 26 10 0 16 -24 50
-35 50 -2 0 -25 -9 -51 -20 -26 -11 -52 -19 -58 -16 -6 2 -3 5 7 5 20 1 21 2
4 33 -14 29 -40 24 -69 -11 -21 -25 -38 -27 -38 -6 0 8 5 15 11 15 5 0 7 5 4
10 -3 6 -18 7 -32 4 -18 -5 -24 -3 -19 5 4 6 1 11 -6 11 -10 0 -9 3 2 10 8 5
17 5 20 1 3 -5 20 -6 37 -4 18 3 31 9 28 13 -3 5 11 4 31 -2 25 -7 40 -6 47 1z
m-2261 -279 c1 -81 -3 -143 -9 -155 -8 -14 -12 20 -13 140 -1 88 -3 182 -5
208 -2 27 0 58 3 70 10 33 22 -107 24 -263z m-144 181 c3 -104 6 -130 17 -155
12 -27 -22 -236 -41 -258 -9 -9 -14 -24 -11 -32 6 -15 -20 -92 -28 -84 -3 2
-1 18 4 36 5 17 7 71 4 121 -3 52 -1 109 6 134 6 24 14 107 17 184 5 94 11
140 18 140 8 0 13 -30 14 -86z m2232 59 c0 -6 -67 -7 -80 0 -3 1 6 5 20 9 27
8 60 3 60 -9z m-2040 -130 l6 25 7 -25 c4 -14 6 -45 5 -70 l-1 -45 -6 38 c-3
21 -10 36 -16 35 -14 -4 -23 45 -22 122 l0 65 10 -85 c7 -59 12 -77 17 -60z
m3130 120 c0 -5 -2 -10 -4 -10 -3 0 -8 5 -11 10 -3 6 -1 10 4 10 6 0 11 -4 11
-10z m-3100 -20 c0 -5 -4 -10 -10 -10 -5 0 -10 5 -10 10 0 6 5 10 10 10 6 0
10 -4 10 -10z m1975 0 c-3 -5 -10 -10 -16 -10 -5 0 -9 5 -9 10 0 6 7 10 16 10
8 0 12 -4 9 -10z m-2298 -182 c-2 -35 -3 -7 -3 62 0 69 1 97 3 63 2 -35 2 -91
0 -125z m3280 160 c-3 -8 -6 -5 -6 6 -1 11 2 17 5 13 3 -3 4 -12 1 -19z m-430
-44 c-3 -3 -12 -4 -19 -1 -8 3 -5 6 6 6 11 1 17 -2 13 -5z m545 -66 c-7 -7
-12 -8 -12 -2 0 14 12 26 19 19 2 -3 -1 -11 -7 -17z m-1242 -12 c0 -2 3 -11 6
-20 3 -9 1 -16 -6 -16 -6 0 -8 5 -5 10 3 6 -3 10 -15 10 -12 0 -18 5 -15 10 6
10 35 14 35 6z m160 -31 c10 -12 10 -15 -3 -15 -8 0 -17 7 -21 15 -3 8 -2 15
3 15 5 0 14 -7 21 -15z m1060 -15 c0 -11 5 -20 10 -20 6 0 10 -4 10 -9 0 -5
-8 -8 -17 -7 -20 3 -32 56 -14 56 6 0 11 -9 11 -20z m-3017 -61 c-4 -4 -8 6
-7 24 1 48 7 56 11 18 3 -18 1 -37 -4 -42z m697 46 c10 -12 10 -15 -3 -15 -9
0 -18 4 -21 9 -3 5 -16 7 -28 3 -14 -3 -19 -2 -14 6 10 17 51 15 66 -3z m2617
-27 c-3 -7 -5 -2 -5 12 0 14 2 19 5 13 2 -7 2 -19 0 -25z m-3202 -8 c0 -7 -9
-14 -20 -15 -15 -1 -21 5 -23 21 -1 20 1 22 21 15 12 -5 22 -14 22 -21z m1805
0 c0 -5 -5 -10 -11 -10 -5 0 -7 5 -4 10 3 6 8 10 11 10 2 0 4 -4 4 -10z m1272
-47 c-8 -23 -22 -3 -22 30 l0 32 13 -25 c8 -14 12 -31 9 -37z m-212 19 c0 -9
-9 -23 -20 -30 -23 -14 -24 -13 -10 22 11 30 30 35 30 8z m-1087 -32 c3 -11 1
-20 -4 -20 -5 0 -9 4 -9 9 0 5 -3 17 -7 27 -4 11 -3 15 4 11 6 -4 13 -16 16
-27z m1426 -247 c-2 -307 -24 -564 -53 -605 -9 -12 -16 -38 -17 -58 0 -19 -7
-53 -15 -75 l-14 -40 5 67 c3 36 12 82 20 102 8 19 15 46 14 58 0 22 -1 22 -8
3 -5 -11 -8 42 -7 120 1 114 -3 150 -18 194 -21 61 -25 156 -7 174 6 6 11 19
11 28 0 10 4 20 9 23 5 3 7 -32 4 -82 -3 -66 -2 -83 7 -70 6 10 11 68 12 133
0 92 4 123 19 152 10 20 21 62 25 94 4 33 8 59 11 59 2 0 3 -125 2 -277z
m-3519 165 c10 -46 18 -73 19 -60 1 24 21 32 21 8 0 -24 -12 -46 -21 -40 -5 3
-9 -6 -9 -20 l0 -26 20 20 c11 11 20 31 20 45 0 14 4 25 9 25 10 0 4 -81 -11
-127 -5 -18 -7 -37 -3 -43 3 -5 1 -10 -4 -10 -6 0 -11 19 -11 43 0 31 -3 38
-10 27 -5 -8 -9 -48 -8 -87 1 -40 -2 -76 -5 -80 -4 -3 -7 8 -7 25 0 18 -4 32
-10 32 -5 0 -10 -8 -10 -17 0 -23 -10 -10 -15 18 -2 13 -9 61 -16 106 -9 62
-10 88 -1 105 6 13 14 51 17 86 4 35 10 61 12 58 3 -3 14 -43 23 -88z m560 72
c13 -9 13 -10 0 -10 -8 0 -22 5 -30 10 -13 9 -13 10 0 10 8 0 22 -5 30 -10z
m1650 -10 c0 -5 -4 -10 -10 -10 -5 0 -10 5 -10 10 0 6 5 10 10 10 6 0 10 -4
10 -10z m725 -9 c3 -5 1 -12 -5 -16 -5 -3 -10 1 -10 9 0 18 6 21 15 7z m-695
-21 c0 -5 -2 -10 -4 -10 -3 0 -8 5 -11 10 -3 6 -1 10 4 10 6 0 11 -4 11 -10z
m-2058 -25 c-5 -31 -22 -44 -22 -18 0 15 17 43 26 43 1 0 -1 -11 -4 -25z
m2727 -23 c1 -7 -3 -10 -9 -7 -5 3 -10 18 -9 33 0 24 1 25 9 7 5 -11 9 -26 9
-33z m-694 8 c3 -5 2 -10 -4 -10 -5 0 -13 5 -16 10 -3 6 -2 10 4 10 5 0 13 -4
16 -10z m60 0 c3 -5 1 -10 -4 -10 -6 0 -11 5 -11 10 0 6 2 10 4 10 3 0 8 -4
11 -10z m920 -18 c0 -12 -4 -21 -10 -19 -5 1 -8 8 -7 16 2 9 -2 12 -12 8 -10
-4 -13 -1 -9 9 8 23 38 12 38 -14z m-1515 -2 c0 -5 -5 -10 -11 -10 -5 0 -7 5
-4 10 3 6 8 10 11 10 2 0 4 -4 4 -10z m1310 -25 c0 -8 4 -15 8 -15 14 0 45
-82 34 -89 -13 -8 -31 -137 -24 -165 3 -12 1 -17 -5 -13 -6 4 -13 20 -15 36
-2 17 -1 28 4 25 16 -10 8 9 -18 43 -14 18 -31 33 -38 33 -15 0 -30 45 -21 60
10 17 25 11 25 -9 0 -11 13 -34 30 -52 l29 -32 -2 41 c-1 23 -5 42 -9 42 -4 0
-8 -5 -8 -12 0 -16 -29 24 -30 41 0 10 3 11 14 2 11 -9 15 -8 20 5 7 18 0 34
-15 34 -6 0 -8 -4 -5 -9 9 -14 -24 -22 -45 -11 -10 6 -19 20 -19 30 0 24 18
27 26 5 6 -14 8 -13 20 2 8 11 13 13 14 6 0 -7 5 -13 11 -13 6 0 9 7 5 15 -3
8 -1 15 4 15 6 0 10 -7 10 -15z m-713 -32 c-3 -10 -5 -4 -5 12 0 17 2 24 5 18
2 -7 2 -21 0 -30z m-727 3 c0 -2 -7 -7 -16 -10 -8 -3 -12 -2 -9 4 6 10 25 14
25 6z m1567 -32 c-9 -9 -28 6 -21 18 4 6 10 6 17 -1 6 -6 8 -13 4 -17z m-1000
10 c-3 -3 -12 -4 -19 -1 -8 3 -5 6 6 6 11 1 17 -2 13 -5z m-697 -12 c0 -13
-12 -22 -22 -16 -10 6 -1 24 13 24 5 0 9 -4 9 -8z m705 -22 c3 -5 -1 -10 -9
-10 -9 0 -16 5 -16 10 0 6 4 10 9 10 6 0 13 -4 16 -10z m397 -11 c2 -6 16 -12
31 -12 l28 -2 -2 -80 c-1 -77 -10 -105 -32 -105 -6 0 -7 3 -4 6 3 4 2 15 -4
25 -8 16 -6 19 11 19 11 0 20 7 20 15 0 13 -11 19 -32 17 -3 -1 -9 5 -12 13
-6 18 5 20 22 3 17 -17 25 12 13 45 -9 23 -16 27 -51 25 -49 -2 -60 7 -34 27
23 17 41 19 46 4z m-2394 -30 c-3 -8 -7 -3 -11 10 -4 17 -3 21 5 13 5 -5 8
-16 6 -23z m2192 -20 c8 -14 5 -17 -15 -15 -27 1 -38 17 -29 41 5 12 9 13 21
4 8 -7 18 -20 23 -30z m395 20 c-10 -15 -25 -10 -19 6 4 8 10 12 15 9 5 -3 7
-10 4 -15z m405 11 c0 -5 1 -13 3 -17 1 -5 -15 -8 -35 -9 -27 -1 -38 3 -38 13
0 8 5 11 10 8 6 -3 10 -1 10 4 0 6 11 11 25 11 14 0 25 -4 25 -10z m-870 -24
c0 -14 -4 -28 -10 -31 -5 -3 -7 0 -4 8 3 8 0 18 -5 22 -12 7 -5 25 10 25 5 0
9 -11 9 -24z m-1453 -88 c-2 -18 -4 -4 -4 32 0 36 2 50 4 33 2 -18 2 -48 0
-65z m-658 32 l-1 -25 -8 25 c-4 14 -8 32 -9 40 -1 13 0 13 9 0 5 -8 9 -26 9
-40z m3027 10 c7 -9 16 -31 19 -49 3 -19 13 -40 22 -46 10 -8 14 -20 10 -33
-3 -12 -2 -24 3 -27 19 -12 67 -203 57 -229 -10 -26 -28 -19 -21 9 4 15 2 25
-5 25 -6 0 -11 -16 -11 -35 0 -19 -4 -35 -10 -35 -6 0 -9 -5 -7 -12 1 -6 -6
-13 -15 -15 -12 -3 -15 1 -11 15 2 10 -2 26 -11 34 -8 9 -12 18 -9 22 4 3 1 6
-6 6 -8 0 -11 7 -7 15 4 11 -3 19 -20 25 -30 12 -23 30 13 30 18 0 24 -4 19
-15 -4 -11 1 -15 18 -15 21 0 24 5 23 35 -1 19 -4 30 -8 24 -9 -15 -28 -2 -39
27 -7 16 -16 23 -31 21 -30 -3 -37 23 -9 30 21 6 22 7 5 19 -20 15 -12 34 15
34 22 0 37 19 23 29 -15 10 -36 69 -28 80 3 6 1 11 -5 11 -7 0 -14 -9 -17 -20
-3 -10 -14 -22 -25 -26 -15 -4 -17 -9 -9 -17 12 -12 16 -13 46 -16 8 0 12 -7
9 -16 -8 -21 -64 -20 -64 1 0 8 -4 12 -10 9 -5 -3 -10 3 -10 14 0 12 -7 21
-15 21 -20 0 -15 60 5 71 26 13 55 22 67 20 6 -1 15 4 19 11 6 9 9 8 12 -2 3
-8 11 -22 18 -30z m-477 -1 c-25 -16 -32 -9 -13 12 12 13 20 16 22 9 3 -7 -2
-16 -9 -21z m-2609 -14 c0 -8 -4 -15 -10 -15 -5 0 -7 7 -4 15 4 8 8 15 10 15
2 0 4 -7 4 -15z m1950 -15 c0 -5 -5 -10 -11 -10 -5 0 -7 5 -4 10 3 6 8 10 11
10 2 0 4 -4 4 -10z m275 -79 c-3 -5 0 -11 6 -13 8 -3 7 -13 -4 -33 -16 -31
-19 -28 -30 23 -3 12 0 22 6 22 8 0 8 3 0 11 -6 6 -8 20 -5 31 5 19 6 19 19
-6 8 -15 11 -30 8 -35z m81 32 c-3 -7 0 -13 7 -13 7 -1 5 -6 -5 -14 -24 -18
-23 -29 2 -21 24 8 28 -21 6 -51 -14 -18 -15 -18 -24 7 -6 15 -18 29 -28 33
-16 6 -16 8 0 25 9 10 14 25 11 32 -4 10 1 15 15 15 13 0 19 -5 16 -13z m284
7 c0 -5 -5 -10 -11 -10 -5 0 -7 5 -4 10 3 6 8 10 11 10 2 0 4 -4 4 -10z
m-2730 -21 c0 -4 -7 -6 -15 -3 -8 4 -15 10 -15 15 0 4 7 6 15 3 8 -4 15 -10
15 -15z m63 -29 c9 0 12 -48 13 -175 0 -98 -3 -175 -8 -175 -5 0 -6 4 -3 10 3
5 1 19 -6 32 -6 12 -14 58 -16 102 -3 44 -9 88 -13 97 -6 10 -4 24 6 38 18 25
12 51 -10 51 -13 0 -13 4 2 30 15 26 17 27 20 10 2 -11 9 -20 15 -20z m2719
18 c-7 -7 -12 -8 -12 -2 0 14 12 26 19 19 2 -3 -1 -11 -7 -17z m582 6 c3 -8 2
-12 -4 -9 -6 3 -10 10 -10 16 0 14 7 11 14 -7z m-464 -29 c0 -8 -6 -15 -12
-18 -10 -3 -10 -7 -1 -18 14 -17 6 -32 -20 -42 -15 -6 -16 -4 -7 13 6 11 10
30 9 43 -4 48 0 60 16 47 8 -7 15 -18 15 -25z m-1125 15 c3 -5 1 -10 -4 -10
-6 0 -11 5 -11 10 0 6 2 10 4 10 3 0 8 -4 11 -10z m402 -24 c-4 -9 -18 -14
-36 -14 -23 1 -27 4 -17 13 12 12 47 24 55 19 2 -2 1 -10 -2 -18z m121 5 c3
-9 0 -11 -7 -7 -7 4 -18 2 -26 -4 -12 -10 -15 -9 -15 9 0 17 5 22 22 19 12 -2
23 -9 26 -17z m-2068 -33 c0 -49 -5 -47 -14 5 -4 23 -3 37 4 37 5 0 10 -19 10
-42z m2740 20 c0 -16 -3 -19 -11 -11 -6 6 -8 16 -5 22 11 17 16 13 16 -11z
m-888 0 c-9 -9 -15 -9 -24 0 -9 9 -7 12 12 12 19 0 21 -3 12 -12z m-2097 -8
c3 -5 1 -10 -4 -10 -6 0 -11 5 -11 10 0 6 2 10 4 10 3 0 8 -4 11 -10z m2565 0
c0 -5 -5 -10 -11 -10 -5 0 -7 5 -4 10 3 6 8 10 11 10 2 0 4 -4 4 -10z m-235
-10 c3 -5 1 -10 -4 -10 -6 0 -11 5 -11 10 0 6 2 10 4 10 3 0 8 -4 11 -10z
m505 -39 c0 -24 -23 4 -25 30 -2 21 -1 21 12 4 7 -11 13 -26 13 -34z m572 11
c14 -21 29 -58 32 -82 4 -25 9 -57 12 -72 3 -16 2 -28 -3 -28 -5 0 -9 10 -10
22 -3 33 -24 120 -35 141 -5 9 -15 17 -23 17 -17 0 -28 17 -20 30 11 17 22 11
47 -28z m-2960 -14 c11 -39 13 -40 19 -17 6 22 7 22 8 2 1 -12 4 -28 7 -37 4
-11 0 -16 -14 -16 -14 0 -24 12 -36 43 -18 49 -20 67 -6 67 5 0 15 -19 22 -42z
m-504 1 c-3 -8 -7 -3 -11 10 -4 17 -3 21 5 13 5 -5 8 -16 6 -23z m2602 11 c-6
-11 -13 -20 -16 -20 -2 0 0 9 6 20 6 11 13 20 16 20 2 0 0 -9 -6 -20z m939
-63 c-1 -31 -1 -31 -9 -7 -11 36 -11 52 0 45 6 -3 10 -21 9 -38z m-3231 -17
c14 -46 15 -70 4 -70 -9 0 -32 59 -32 84 0 9 -4 14 -10 11 -11 -7 -14 8 -4 18
13 12 30 -5 42 -43z m2722 25 c0 -8 -4 -15 -10 -15 -5 0 -7 7 -4 15 4 8 8 15
10 15 2 0 4 -7 4 -15z m-504 -41 c-10 -34 -11 -34 -14 -9 -4 32 5 58 17 51 4
-3 3 -22 -3 -42z m679 -6 c6 -5 3 -8 -6 -8 -18 0 -29 20 -28 48 0 12 4 9 12
-8 6 -14 16 -28 22 -32z m-2775 16 c0 -8 -4 -12 -10 -9 -5 3 -10 13 -10 21 0
8 5 12 10 9 6 -3 10 -13 10 -21z m1218 -10 c-3 -14 -5 -12 -10 9 -3 19 -2 25
4 19 6 -6 8 -18 6 -28z m189 20 c-3 -3 -12 -4 -19 -1 -8 3 -5 6 6 6 11 1 17
-2 13 -5z m-1480 -26 c-3 -8 -6 -5 -6 6 -1 11 2 17 5 13 3 -3 4 -12 1 -19z
m1900 -30 c-3 -8 -6 -5 -6 6 -1 11 2 17 5 13 3 -3 4 -12 1 -19z m933 3 c0 -5
3 -23 6 -40 5 -24 3 -31 -10 -31 -12 0 -16 10 -16 40 0 22 5 40 10 40 6 0 10
-4 10 -9z m-2937 -36 c-7 -21 -13 -19 -13 6 0 11 4 18 10 14 5 -3 7 -12 3 -20z
m127 5 c0 -5 -4 -10 -10 -10 -5 0 -10 5 -10 10 0 6 5 10 10 10 6 0 10 -4 10
-10z m-55 -20 c3 -5 1 -10 -4 -10 -6 0 -11 5 -11 10 0 6 2 10 4 10 3 0 8 -4
11 -10z m-258 -77 c-2 -16 -4 -3 -4 27 0 30 2 43 4 28 2 -16 2 -40 0 -55z
m228 67 c3 -5 1 -10 -4 -10 -6 0 -11 5 -11 10 0 6 2 10 4 10 3 0 8 -4 11 -10z
m2965 0 c0 -5 -5 -10 -11 -10 -5 0 -7 5 -4 10 3 6 8 10 11 10 2 0 4 -4 4 -10z
m-2844 -28 c-10 -2 -26 3 -35 12 -15 15 -13 16 19 4 26 -9 30 -13 16 -16z
m-151 9 c3 -5 1 -12 -5 -16 -5 -3 -10 1 -10 9 0 18 6 21 15 7z m2945 -11 c0
-5 -2 -10 -4 -10 -3 0 -8 5 -11 10 -3 6 -1 10 4 10 6 0 11 -4 11 -10z m-60
-31 c0 -6 -4 -7 -10 -4 -5 3 -10 11 -10 16 0 6 5 7 10 4 6 -3 10 -11 10 -16z
m-1038 -36 c-7 -39 -20 -35 -20 7 -1 31 2 37 12 28 7 -7 10 -22 8 -35z m1183
18 c-3 -5 -1 -12 5 -16 6 -4 5 -16 -5 -35 -8 -16 -15 -37 -15 -47 -1 -17 -1
-17 -11 1 -8 13 -8 24 1 41 7 13 10 30 7 38 -6 16 0 27 15 27 5 0 7 -4 3 -9z
m-123 -60 c-4 -12 -7 -11 -13 5 -4 10 -8 28 -8 39 0 18 1 17 13 -4 8 -14 11
-32 8 -40z m165 37 c-3 -8 -6 -5 -6 6 -1 11 2 17 5 13 3 -3 4 -12 1 -19z
m-3264 -50 c-3 -6 2 -17 12 -24 15 -11 17 -18 7 -36 -6 -13 -13 -30 -16 -38
-3 -8 -4 -3 -2 13 2 15 0 27 -4 27 -3 0 -7 26 -8 58 -1 45 1 52 8 34 6 -13 7
-29 3 -34z m64 -99 c-9 -38 -14 -75 -11 -84 4 -9 0 -15 -10 -15 -13 0 -14 9
-10 50 3 28 12 63 19 77 8 16 12 46 10 77 l-4 51 11 -44 c9 -35 8 -56 -5 -112z
m1590 94 c-3 -10 -5 -2 -5 17 0 19 2 27 5 18 2 -10 2 -26 0 -35z m1830 15 c-3
-8 -6 -5 -6 6 -1 11 2 17 5 13 3 -3 4 -12 1 -19z m-62 -116 c-11 -130 -20
-126 -22 10 -1 109 0 118 14 98 12 -17 13 -38 8 -108z m-355 108 c0 -5 -2 -10
-4 -10 -3 0 -8 5 -11 10 -3 6 -1 10 4 10 6 0 11 -4 11 -10z m-17 -30 c3 -11 1
-20 -4 -20 -5 0 -9 9 -9 20 0 11 2 20 4 20 2 0 6 -9 9 -20z m257 -102 c0 -13
-23 -5 -28 10 -2 7 2 10 12 6 9 -3 16 -11 16 -16z m-190 -19 c0 -6 -4 -7 -10
-4 -5 3 -10 11 -10 16 0 6 5 7 10 4 6 -3 10 -11 10 -16z m129 -46 c-5 -14 -5
-23 1 -23 6 0 10 -12 9 -27 0 -16 -3 -22 -6 -15 -9 23 -23 1 -23 -39 0 -21 -4
-39 -10 -39 -13 0 -13 56 1 122 17 80 20 87 29 63 4 -11 4 -30 -1 -42z m221
43 c0 -2 -7 -20 -15 -39 -11 -27 -12 -36 -2 -40 9 -4 9 -7 0 -18 -7 -7 -13
-21 -13 -30 0 -17 -27 -46 -35 -37 -7 6 48 168 57 168 4 0 8 -2 8 -4z m-160
-22 c0 -2 -7 -4 -15 -4 -8 0 -15 4 -15 10 0 5 7 7 15 4 8 -4 15 -8 15 -10z
m57 -26 c-3 -7 -5 -2 -5 12 0 14 2 19 5 13 2 -7 2 -19 0 -25z m-2450 -20 c-3
-7 -5 -2 -5 12 0 14 2 19 5 13 2 -7 2 -19 0 -25z m-827 -63 c5 -39 13 -81 16
-95 5 -22 4 -23 -10 -10 -9 10 -17 46 -22 100 -8 101 1 103 16 5z m687 33 c-3
-8 -6 -5 -6 6 -1 11 2 17 5 13 3 -3 4 -12 1 -19z m2364 -9 c-5 -13 -14 -43
-20 -67 -7 -23 -16 -40 -21 -37 -4 3 -11 -1 -13 -7 -3 -7 -6 -3 -6 10 -1 13 5
22 13 22 9 0 12 7 9 20 -3 10 5 35 17 55 24 39 36 41 21 4z m-2364 -41 c-3 -7
-5 -2 -5 12 0 14 2 19 5 13 2 -7 2 -19 0 -25z m103 -12 c0 -3 -4 -8 -10 -11
-5 -3 -10 -1 -10 4 0 6 5 11 10 11 6 0 10 -2 10 -4z m-110 -26 c0 -11 -4 -20
-9 -20 -5 0 -7 9 -4 20 3 11 7 20 9 20 2 0 4 -9 4 -20z m2220 -66 c0 -41 -4
-63 -10 -59 -18 11 -12 125 7 125 2 0 3 -30 3 -66z m-1065 36 c3 -5 1 -10 -4
-10 -6 0 -11 5 -11 10 0 6 2 10 4 10 3 0 8 -4 11 -10z m1136 -53 c-13 -13 -15
1 -4 30 7 17 8 17 11 -1 2 -10 -1 -23 -7 -29z m-1491 3 c0 -5 -7 -7 -15 -4 -8
4 -12 10 -9 15 6 11 24 2 24 -11z m1447 -12 c-3 -8 -6 -5 -6 6 -1 11 2 17 5
13 3 -3 4 -12 1 -19z m-1794 -45 c-7 -2 -21 -2 -30 0 -10 3 -4 5 12 5 17 0 24
-2 18 -5z m1937 -31 c0 -15 -2 -15 -10 -2 -13 20 -13 33 0 25 6 -3 10 -14 10
-23z m210 -6 c0 -3 -4 -8 -10 -11 -5 -3 -10 -1 -10 4 0 6 5 11 10 11 6 0 10
-2 10 -4z m-36 -81 c-4 -8 -11 -15 -16 -15 -6 0 -5 6 2 15 7 8 14 15 16 15 2
0 1 -7 -2 -15z m64 3 c-2 -6 -10 -14 -16 -16 -7 -2 -10 2 -6 12 7 18 28 22 22
4z m-557 -39 c-6 -16 -10 -18 -10 -7 -1 22 12 55 16 42 2 -6 -1 -22 -6 -35z
m-647 -25 c9 -3 16 -10 16 -14 0 -10 -38 -1 -46 11 -6 10 7 12 30 3z m1139 -9
c-3 -9 -8 -14 -10 -11 -3 3 -2 9 2 15 9 16 15 13 8 -4z m-1455 -67 l27 -12
-28 -4 c-32 -4 -71 24 -63 45 3 7 -2 13 -12 14 -14 0 -14 2 3 8 15 7 23 3 33
-16 7 -13 25 -29 40 -35z m237 52 l20 -9 -20 0 c-11 0 -27 4 -35 9 -13 9 -13
10 0 9 8 0 24 -4 35 -9z m-572 -55 c-3 -9 -8 -14 -10 -11 -3 3 -2 9 2 15 9 16
15 13 8 -4z m665 -2 c16 -4 22 -11 19 -24 -3 -12 0 -16 9 -12 21 8 36 -59 16
-74 -14 -11 -13 -13 6 -13 15 0 27 -9 34 -27 13 -29 45 -63 59 -63 16 0 47
-78 41 -105 l-5 -27 -14 30 c-14 29 -75 62 -115 62 -8 0 -35 7 -59 16 -24 9
-53 16 -64 16 -31 -2 -95 18 -95 28 0 6 -9 10 -20 10 -12 0 -21 7 -21 18 -1 9
-3 27 -4 40 -2 22 13 29 31 13 5 -6 14 -4 21 4 15 16 1 22 -57 26 -19 2 -41 7
-47 12 -9 6 -19 5 -29 -4 -14 -12 -16 -11 -13 6 4 16 16 21 68 28 35 4 82 16
105 27 42 20 92 25 134 13z m-268 -113 c0 -12 -33 -18 -55 -9 -19 7 -19 8 3 8
12 1 22 5 22 11 0 5 7 7 15 4 8 -4 15 -10 15 -14z m40 10 c0 -5 -4 -10 -10
-10 -5 0 -10 5 -10 10 0 6 5 10 10 10 6 0 10 -4 10 -10z m921 -182 c-9 -20
-10 -18 -10 17 0 31 2 36 9 23 6 -10 7 -25 1 -40z m-1634 -57 c-15 -6 -18 6
-10 35 l7 29 6 -30 c3 -16 2 -32 -3 -34z m-753 -121 l7 -25 -14 25 c-8 14 -17
39 -20 55 l-6 30 13 -30 c8 -16 16 -41 20 -55z m1751 61 c7 -24 36 -32 58 -16
12 8 28 9 62 1 25 -6 45 -14 45 -18 0 -4 7 -4 17 -1 12 5 14 3 8 -8 -8 -12 -6
-12 9 0 16 13 17 11 10 -40 -13 -103 -53 -229 -72 -229 -5 0 -12 -9 -15 -21
-3 -12 -10 -18 -15 -15 -5 3 -8 -23 -8 -62 1 -43 -4 -77 -14 -97 -21 -40 -38
-57 -50 -50 -5 3 -7 0 -4 -9 3 -8 13 -12 22 -9 11 3 13 2 6 -4 -6 -4 -14 -16
-17 -26 -4 -11 -16 -21 -28 -24 -11 -3 -16 -9 -10 -12 5 -4 -9 -18 -32 -32
l-43 -26 -2 24 c-3 34 -10 43 -27 36 -10 -3 -15 2 -15 16 0 20 -13 25 -60 22
-10 0 -11 1 -2 5 6 3 12 14 12 25 0 10 4 19 9 19 5 0 11 10 14 23 6 21 6 21
-8 3 -8 -11 -15 -15 -15 -8 0 6 -12 15 -27 19 -36 9 -40 10 -58 12 -8 0 -12 7
-9 16 4 8 2 21 -4 28 -6 6 -12 23 -14 37 -4 30 -28 38 -120 39 -43 1 -68 -3
-70 -11 -2 -6 -22 -17 -44 -23 -36 -10 -47 -9 -83 12 -2 2 4 12 14 23 18 20
17 20 -13 20 -33 0 -43 14 -17 24 8 3 15 17 15 31 0 14 5 25 10 25 6 0 10 -6
10 -14 0 -24 21 -31 113 -36 66 -4 87 -2 87 8 0 8 -15 12 -43 12 -23 0 -68 9
-99 20 -72 25 -167 21 -200 -10 -12 -11 -27 -19 -33 -17 -16 6 -18 37 -2 37
17 0 30 37 16 46 -14 9 -41 -4 -34 -16 3 -5 -3 -10 -14 -10 -12 0 -21 5 -21
10 0 6 4 10 9 10 5 0 7 9 4 20 -3 11 -9 20 -12 20 -4 0 -6 14 -3 30 4 27 8 30
40 30 25 0 44 8 64 27 26 24 31 26 61 16 17 -7 44 -9 60 -6 19 4 27 1 27 -8 0
-9 3 -10 8 -3 10 16 123 36 136 25 6 -6 31 -7 54 -4 37 5 42 9 43 32 l1 26 7
-25 c5 -18 9 -21 15 -12 4 7 15 11 23 8 9 -4 21 1 29 11 10 13 13 14 14 4 0
-10 3 -11 14 -2 11 9 19 9 34 0 21 -13 52 -6 52 11 0 6 -10 15 -22 21 -17 7
-8 8 36 5 33 -3 62 -10 66 -16 4 -7 10 2 13 19 7 35 23 41 32 12z m-1718 -23
c-3 -7 -5 -2 -5 12 0 14 2 19 5 13 2 -7 2 -19 0 -25z m2213 12 c0 -5 -4 -10
-10 -10 -5 0 -10 5 -10 10 0 6 5 10 10 10 6 0 10 -4 10 -10z m4 -77 c-15 -15
-34 -17 -34 -3 0 6 5 10 10 10 6 0 10 10 10 22 0 21 1 21 14 3 11 -16 11 -21
0 -32z m100 -268 c-9 -14 -18 -24 -20 -23 -1 2 2 32 8 68 5 36 13 106 16 155
l7 90 3 -132 c2 -110 0 -137 -14 -158z m-113 208 l2 -38 7 40 6 40 5 -35 c6
-47 -10 -100 -27 -93 -10 4 -14 24 -14 64 0 64 19 83 21 22z m-2104 -155 c-3
-7 -5 -2 -5 12 0 14 2 19 5 13 2 -7 2 -19 0 -25z m413 -43 c0 -19 -2 -35 -4
-35 -2 0 -6 16 -8 35 -2 19 0 35 4 35 4 0 8 -16 8 -35z m510 -8 c0 -5 -5 -5
-10 -2 -6 3 -14 -4 -18 -16 l-9 -23 -5 22 c-4 12 -3 20 2 17 4 -3 10 5 14 18
5 18 8 20 16 7 5 -8 10 -19 10 -23z m-673 -72 c7 -22 14 -53 17 -70 2 -16 8
-39 12 -49 6 -16 4 -16 -16 4 -23 23 -24 23 -31 4 -5 -14 -8 -15 -8 -3 -1 8 4
20 10 26 7 7 7 26 -1 64 -6 30 -14 68 -16 84 l-6 30 14 -25 c8 -14 19 -43 25
-65z m1884 14 c-6 -18 -8 -49 -5 -70 4 -21 2 -45 -3 -51 -6 -7 -13 -25 -17
-40 -3 -15 -14 -32 -24 -37 -15 -8 -18 -5 -17 17 0 15 6 31 13 35 8 5 12 23
11 40 -2 18 2 41 8 52 6 11 17 40 23 65 7 25 15 39 17 32 3 -7 0 -26 -6 -43z
m-1185 9 c1 -9 -5 -19 -13 -23 -19 -7 -18 -7 -28 23 -6 20 -4 23 16 20 12 -2
23 -11 25 -20z m1219 -83 c-31 -74 -32 -64 -3 29 12 40 23 62 25 51 2 -11 -8
-47 -22 -80z m-1749 43 c0 -21 -2 -38 -3 -38 -3 0 -33 70 -33 76 0 1 8 2 19 1
15 -1 18 -9 17 -39z m499 2 c3 -5 -1 -10 -9 -10 -9 0 -16 5 -16 10 0 6 4 10 9
10 6 0 13 -4 16 -10z m-35 -26 c0 -8 -4 -14 -10 -14 -5 0 -10 9 -10 21 0 11 5
17 10 14 6 -3 10 -13 10 -21z m305 -10 c3 -20 4 -39 1 -42 -9 -8 -13 0 -19 41
-7 48 9 49 18 1z m-195 16 c0 -5 -7 -10 -15 -10 -8 0 -15 5 -15 10 0 6 7 10
15 10 8 0 15 -4 15 -10z m1593 -28 c2 -10 -2 -23 -9 -30 -15 -14 -20 -7 -22
30 -1 20 2 26 12 22 8 -3 16 -13 19 -22z m-1256 -17 c-9 -7 -14 -14 -11 -17
12 -12 13 -103 1 -110 -20 -13 -27 -9 -27 12 0 11 5 20 10 20 6 0 5 9 -2 21
-10 17 -10 23 0 26 6 3 12 11 12 19 0 8 -6 14 -12 15 -10 0 -10 2 0 6 6 2 12
11 12 19 0 8 6 11 16 7 16 -6 16 -7 1 -18z m-224 -12 c-7 -2 -19 -2 -25 0 -7
3 -2 5 12 5 14 0 19 -2 13 -5z m-583 -40 c0 -13 -3 -13 -15 -3 -8 7 -15 19
-15 27 0 13 3 13 15 3 8 -7 15 -19 15 -27z m471 -13 l-7 -35 -5 32 c-3 18 -2
30 3 27 4 -3 8 0 8 7 0 7 2 10 4 8 3 -2 1 -20 -3 -39z m41 25 c0 -5 -5 -11
-11 -13 -6 -2 -11 4 -11 13 0 9 5 15 11 13 6 -2 11 -8 11 -13z m-782 -87 c0
-51 -5 -47 -13 10 -3 24 -1 40 4 36 5 -3 9 -24 9 -46z m1849 -16 c5 -10 6 -24
2 -31 -6 -10 -12 -7 -25 10 -9 13 -16 27 -16 31 0 15 29 8 39 -10z m-682 -48
c-3 -3 -12 -4 -19 -1 -8 3 -5 6 6 6 11 1 17 -2 13 -5z m-1537 -134 c0 -5 -15
-9 -32 -9 l-33 1 30 8 c17 4 31 8 33 9 1 0 2 -3 2 -9z m34 -5 c3 -9 0 -15 -9
-15 -8 0 -15 7 -15 15 0 8 4 15 9 15 5 0 11 -7 15 -15z m56 4 c0 -7 10 -9 25
-5 19 5 27 2 31 -11 3 -10 12 -30 20 -44 7 -14 10 -30 6 -34 -4 -5 -2 -5 4 -2
15 9 30 -11 39 -50 4 -21 3 -33 -4 -33 -6 0 -11 12 -11 26 0 14 -4 23 -9 19
-5 -3 -16 3 -23 13 -7 11 -23 22 -36 26 -12 4 -19 12 -16 18 4 6 -6 8 -27 6
-25 -2 -34 1 -34 12 0 11 9 14 33 12 18 -2 32 1 32 7 0 6 -6 11 -13 11 -7 0
-18 9 -25 20 -7 12 -8 20 -2 20 5 0 10 -5 10 -11z m-286 -35 c3 -8 2 -12 -4
-9 -6 3 -10 10 -10 16 0 14 7 11 14 -7z m1117 -7 c-10 -9 -11 -8 -5 6 3 10 9
15 12 12 3 -3 0 -11 -7 -18z m-1303 5 c12 -1 22 -9 22 -17 0 -8 8 -15 18 -15
14 0 15 -2 2 -10 -10 -6 -20 -4 -31 6 -20 18 -58 18 -65 0 -3 -8 -12 -12 -20
-9 -28 11 -62 -7 -72 -37 -11 -30 -32 -41 -32 -17 0 12 -44 37 -66 37 -6 0
-14 -9 -17 -21 -4 -15 -2 -19 9 -15 8 3 21 9 29 12 10 4 15 0 15 -14 0 -11 5
-22 12 -24 28 -10 -7 -27 -67 -33 -39 -5 -63 -12 -62 -19 1 -6 -12 -11 -30
-12 -33 0 -61 -14 -30 -14 10 0 17 -6 17 -12 0 -9 -16 -13 -48 -13 -32 0 -46
4 -45 13 4 17 -15 15 -34 -4 -14 -13 -14 -17 -2 -24 23 -15 1 -24 -58 -22 -56
1 -88 -11 -77 -30 4 -6 -2 -7 -16 -3 -15 5 -20 4 -16 -3 4 -6 -2 -16 -13 -22
-13 -7 -22 -7 -26 0 -9 15 -58 12 -94 -6 -18 -9 -34 -14 -37 -11 -6 6 59 47
75 47 6 0 11 7 11 15 0 8 5 15 11 15 6 0 41 14 78 31 67 32 134 62 161 73 23
9 54 30 62 41 5 7 8 6 8 -1 0 -6 24 -10 58 -10 53 1 57 3 55 23 -2 17 8 29 37
48 46 29 53 30 70 10 14 -17 30 -20 30 -5 0 6 -7 10 -16 10 -28 0 -4 19 34 26
20 4 43 10 51 14 13 7 29 7 109 2z m125 -12 c5 -21 -4 -24 -38 -11 -19 8 -19
8 0 19 28 16 32 15 38 -8z m142 0 c3 -5 13 -6 21 -3 9 3 20 0 25 -8 8 -14 9
-14 84 17 17 7 18 6 7 -8 -9 -12 -10 -18 -2 -23 8 -5 8 -11 -1 -21 -6 -7 -15
-11 -20 -8 -5 3 -6 -1 -3 -9 3 -8 -2 -17 -12 -21 -23 -9 -30 0 -14 19 16 20
10 26 -18 18 -17 -4 -21 -11 -17 -27 5 -18 4 -19 -7 -6 -15 17 -84 15 -107 -3
-12 -10 -14 -9 -8 7 6 15 4 17 -13 13 -11 -3 -23 -1 -26 4 -5 8 42 14 76 9 10
-1 7 5 -7 18 l-23 19 23 11 c28 14 35 14 42 2z m175 -50 c0 -5 -2 -10 -4 -10
-3 0 -8 5 -11 10 -3 6 -1 10 4 10 6 0 11 -4 11 -10z m26 -17 c-10 -10 -19 5
-10 18 6 11 8 11 12 0 2 -7 1 -15 -2 -18z m-566 7 c0 -5 10 -10 22 -10 31 0
10 -18 -30 -26 -34 -7 -44 10 -20 34 15 15 28 16 28 2z m162 3 c-6 -2 -10 -9
-6 -14 3 -5 -4 -9 -15 -9 -26 0 -28 17 -3 23 24 6 40 7 24 0z m43 -13 c-3 -5
-11 -10 -16 -10 -6 0 -7 5 -4 10 3 6 11 10 16 10 6 0 7 -4 4 -10z m45 -12 c0
-13 -23 -5 -28 10 -2 7 2 10 12 6 9 -3 16 -11 16 -16z m380 12 c0 -5 -5 -10
-11 -10 -5 0 -7 5 -4 10 3 6 8 10 11 10 2 0 4 -4 4 -10z m-30 -19 c0 -11 -4
-23 -10 -26 -6 -4 -10 5 -10 19 0 14 5 26 10 26 6 0 10 -9 10 -19z m3333 2
c-7 -2 -21 -2 -30 0 -10 3 -4 5 12 5 17 0 24 -2 18 -5z m-3363 -17 c0 -8 -6
-16 -13 -19 -8 -3 -14 1 -14 9 0 7 4 11 9 8 4 -3 8 0 8 5 0 6 2 11 5 11 3 0 5
-6 5 -14z m93 -9 c4 3 7 2 7 -4 0 -10 -22 -23 -40 -23 -4 0 -10 9 -13 20 -6
23 14 33 29 14 6 -8 14 -11 17 -7z m3312 13 c3 -6 -4 -10 -17 -10 -18 0 -20 2
-8 10 19 12 18 12 25 0z m-3500 -10 c3 -5 1 -10 -4 -10 -6 0 -11 5 -11 10 0 6
2 10 4 10 3 0 8 -4 11 -10z m-155 -4 c0 -3 -4 -8 -10 -11 -5 -3 -10 -1 -10 4
0 6 5 11 10 11 6 0 10 -2 10 -4z m3859 -12 c2 -2 -17 -4 -43 -4 -27 0 -45 4
-41 9 5 9 73 4 84 -5z m-1069 -18 c0 -2 -7 -6 -15 -10 -8 -3 -15 -1 -15 4 0 6
7 10 15 10 8 0 15 -2 15 -4z m-2423 -18 c8 21 18 13 19 -16 1 -25 -2 -28 -26
-24 -23 3 -26 8 -22 29 4 19 7 22 14 11 7 -10 11 -10 15 0z m-107 -8 c0 -5 -7
-10 -16 -10 -8 0 -12 5 -9 10 3 6 10 10 16 10 5 0 9 -4 9 -10z m70 0 c0 -5 -5
-10 -11 -10 -5 0 -7 5 -4 10 3 6 8 10 11 10 2 0 4 -4 4 -10z m-790 -35 c-23
-25 -40 -32 -40 -17 0 7 49 41 59 42 3 0 -6 -11 -19 -25z m-79 -10 c0 -6 -10
-12 -23 -13 -19 -4 -20 -2 -9 12 15 17 33 18 32 1z m166 9 c-3 -3 -12 -4 -19
-1 -8 3 -5 6 6 6 11 1 17 -2 13 -5z m2982 -40 c-18 -22 -22 -11 -7 22 10 21
14 24 16 10 2 -9 -2 -24 -9 -32z m-3715 -98 c-7 -18 -40 -40 -74 -51 -22 -7
-23 -6 -8 9 9 9 19 16 23 16 3 0 15 9 27 20 25 23 40 26 32 6z m170 3 c-3 -5
-20 -9 -39 -9 -19 0 -36 -4 -40 -10 -3 -5 -13 -6 -22 -3 -10 4 -14 2 -10 -4 5
-7 0 -9 -13 -6 -32 9 -23 23 15 23 19 0 35 4 35 9 0 6 18 9 40 9 22 0 37 -4
34 -9z m1321 -56 c-4 -10 -7 -28 -6 -40 3 -32 -7 -47 -24 -33 -10 8 -9 19 9
54 20 42 37 57 21 19z m-1507 -17 c-7 -7 -19 -13 -28 -12 -8 1 -14 -4 -13 -11
2 -7 -4 -10 -12 -6 -12 4 -13 9 -5 19 10 11 23 16 63 23 4 0 2 -5 -5 -13z
m-78 -1 c0 -2 -10 -10 -22 -16 -21 -11 -22 -11 -9 4 13 16 31 23 31 12z m3820
-225 c0 -5 -5 -10 -11 -10 -5 0 -7 5 -4 10 3 6 8 10 11 10 2 0 4 -4 4 -10z
m-4406 -274 c-3 -9 -10 -13 -15 -10 -5 3 -3 11 4 19 15 16 19 13 11 -9z m-207
3 c-9 -6 -15 -14 -13 -18 3 -4 -1 -8 -9 -8 -8 0 -15 2 -15 3 0 8 33 34 43 34
7 0 4 -5 -6 -11z m100 -5 c-3 -3 -12 -4 -19 -1 -8 3 -5 6 6 6 11 1 17 -2 13
-5z m2138 -99 c-3 -33 -10 -54 -22 -63 -10 -7 -28 -21 -39 -31 -12 -11 -36
-22 -53 -26 -39 -8 -48 9 -26 51 8 16 15 22 15 14 0 -8 9 0 20 18 11 19 29 43
40 55 11 11 20 26 20 32 0 6 5 16 12 23 20 20 36 -18 33 -73z m-2194 51 c5 3
9 1 9 -5 0 -15 -18 -23 -25 -11 -3 5 -17 10 -31 10 -14 0 -23 4 -19 10 4 6 15
6 31 0 14 -6 30 -8 35 -4z m619 -13 c0 -10 -4 -14 -8 -8 -4 6 -11 13 -16 18
-5 4 -2 7 7 7 10 0 17 -8 17 -17z m-412 -18 c-3 -3 -9 2 -12 12 -6 14 -5 15 5
6 7 -7 10 -15 7 -18z m-128 5 c0 -5 -4 -10 -10 -10 -5 0 -10 5 -10 10 0 6 5
10 10 10 6 0 10 -4 10 -10z m-155 -68 c-8 -8 -25 10 -25 26 0 13 2 13 14 -4 8
-10 13 -21 11 -22z m415 7 c0 -6 -4 -7 -10 -4 -5 3 -10 11 -10 16 0 6 5 7 10
4 6 -3 10 -11 10 -16z m-321 2 c7 -5 11 -13 7 -19 -3 -6 0 -13 6 -15 8 -3 6
-6 -4 -6 -11 -1 -18 6 -18 18 0 11 -6 22 -12 24 -7 3 -8 6 -3 6 6 0 16 -3 24
-8z m106 0 c3 -5 1 -12 -5 -16 -5 -3 -10 1 -10 9 0 18 6 21 15 7z m616 -14
c-10 -9 -11 -8 -5 6 3 10 9 15 12 12 3 -3 0 -11 -7 -18z m-912 -27 c0 -9 -2
-11 -5 -3 -3 7 -11 10 -19 7 -7 -3 -16 -1 -20 5 -3 7 0 8 9 5 11 -4 16 0 16
12 0 16 2 17 10 4 5 -8 9 -22 9 -30z m32 26 c14 8 11 -2 -4 -14 -10 -8 -13 -6
-14 11 0 12 1 16 4 9 3 -6 9 -10 14 -6z m234 4 c3 -5 1 -10 -4 -10 -6 0 -11 5
-11 10 0 6 2 10 4 10 3 0 8 -4 11 -10z m65 1 c0 -5 -7 -12 -16 -15 -14 -5 -15
-4 -4 9 14 17 20 19 20 6z m40 5 c0 -3 -4 -8 -10 -11 -5 -3 -10 -1 -10 4 0 6
5 11 10 11 6 0 10 -2 10 -4z m-492 -31 c-3 -3 -9 2 -12 12 -6 14 -5 15 5 6 7
-7 10 -15 7 -18z m267 15 c3 -5 -1 -10 -9 -10 -9 0 -16 5 -16 10 0 6 4 10 9
10 6 0 13 -4 16 -10z m502 -16 c-3 -3 -12 -4 -19 -1 -8 3 -5 6 6 6 11 1 17 -2
13 -5z m-407 -25 c-7 -11 -14 -18 -17 -15 -3 3 0 12 7 21 18 21 23 19 10 -6z
m-560 7 c0 -2 -7 -9 -15 -16 -13 -11 -14 -10 -9 4 5 14 24 23 24 12z m146 -24
c-2 -9 -9 -18 -17 -20 -11 -3 -11 -1 1 7 12 8 7 11 -20 11 -38 0 -27 14 13 16
17 1 24 -3 23 -14z m124 7 c0 -6 -6 -9 -12 -6 -7 2 -22 1 -34 -4 -14 -5 -21
-3 -21 5 0 8 14 13 34 14 18 1 33 -3 33 -9z m207 -9 c-1 -12 -5 -16 -10 -11
-5 5 -6 14 -3 20 11 16 15 13 13 -9z m-132 0 c3 -5 2 -10 -4 -10 -5 0 -13 5
-16 10 -3 6 -2 10 4 10 5 0 13 -4 16 -10z m55 -15 c11 -13 10 -14 -4 -9 -9 3
-16 10 -16 15 0 13 6 11 20 -6z m-310 -25 c7 -14 7 -20 0 -20 -5 0 -10 6 -10
14 0 8 -6 17 -12 19 -10 4 -10 6 -1 6 7 1 17 -8 23 -19z m93 -7 c-7 -2 -21 -2
-30 0 -10 3 -4 5 12 5 17 0 24 -2 18 -5z m5200 -30 c4 -19 2 -33 -3 -33 -13 0
-24 46 -15 60 9 15 11 12 18 -27z m57 -3 c0 -5 -4 -10 -10 -10 -5 0 -10 5 -10
10 0 6 5 10 10 10 6 0 10 -4 10 -10z m-5666 -75 c-4 -8 -11 -15 -16 -15 -6 0
-5 6 2 15 7 8 14 15 16 15 2 0 1 -7 -2 -15z m8514 -105 c7 -11 8 -20 2 -20 -5
0 -14 9 -20 20 -6 11 -7 20 -3 20 5 0 14 -9 21 -20z"/>
<path d="M3940 5892 c0 -11 37 -32 44 -25 3 3 -2 12 -12 19 -19 15 -32 18 -32
6z"/>
<path d="M3900 5694 c0 -8 5 -12 10 -9 6 4 8 11 5 16 -9 14 -15 11 -15 -7z"/>
<path d="M4558 5633 c7 -3 16 -2 19 1 4 3 -2 6 -13 5 -11 0 -14 -3 -6 -6z"/>
<path d="M5152 5635 c2 -3 27 -7 54 -9 33 -3 42 -2 29 4 -21 9 -92 13 -83 5z"/>
<path d="M3970 5611 c0 -17 24 -26 71 -26 25 -1 51 5 58 12 9 10 6 13 -16 14
-15 0 -47 2 -70 5 -24 2 -43 0 -43 -5z"/>
<path d="M3905 5600 c-3 -5 -2 -10 4 -10 5 0 13 5 16 10 3 6 2 10 -4 10 -5 0
-13 -4 -16 -10z"/>
<path d="M4670 5500 c0 -5 7 -10 15 -10 8 0 15 5 15 10 0 6 -7 10 -15 10 -8 0
-15 -4 -15 -10z"/>
<path d="M4062 5260 c0 -19 2 -27 5 -17 2 9 2 25 0 35 -3 9 -5 1 -5 -18z"/>
<path d="M4010 4856 c0 -20 3 -36 8 -36 7 0 36 41 30 44 -2 1 -11 8 -20 15
-16 12 -18 10 -18 -23z"/>
<path d="M4092 4820 c-18 -29 -15 -36 8 -15 20 18 26 35 12 35 -4 0 -13 -9
-20 -20z"/>
<path d="M4001 4764 c0 -11 3 -14 6 -6 3 7 2 16 -1 19 -3 4 -6 -2 -5 -13z"/>
<path d="M7171 5235 c-1 -5 -4 -28 -6 -50 l-4 -40 10 33 c5 19 8 41 6 50 -3
10 -5 13 -6 7z"/>
<path d="M4870 5480 c-8 -5 -12 -11 -10 -14 3 -2 14 2 24 10 22 15 10 19 -14
4z"/>
<path d="M6130 5471 c0 -6 5 -13 10 -16 6 -3 10 1 10 9 0 9 -4 16 -10 16 -5 0
-10 -4 -10 -9z"/>
<path d="M6030 5450 c0 -13 28 -25 38 -16 3 4 0 11 -8 16 -20 13 -30 12 -30 0z"/>
<path d="M6095 5440 c4 -6 11 -8 16 -5 14 9 11 15 -7 15 -8 0 -12 -5 -9 -10z"/>
<path d="M6165 5433 c-11 -3 -24 -10 -30 -15 -7 -7 -2 -8 15 -3 52 15 64 30
15 18z"/>
<path d="M5780 5204 c0 -16 18 -18 38 -5 10 6 7 10 -12 13 -18 4 -26 1 -26 -8z"/>
<path d="M6280 5196 c0 -24 25 -36 60 -30 l33 7 -24 18 c-28 22 -69 25 -69 5z"/>
<path d="M6205 5130 c3 -5 15 -10 26 -10 11 0 17 5 14 10 -3 6 -15 10 -26 10
-11 0 -17 -4 -14 -10z"/>
<path d="M6395 5130 c-3 -5 -12 -7 -20 -3 -8 3 -15 0 -15 -5 0 -6 -13 -9 -30
-7 -49 6 -37 -22 13 -30 23 -4 50 -12 60 -17 15 -8 17 -5 13 16 -3 14 -7 30
-10 35 -4 5 0 12 6 14 9 4 10 6 1 6 -6 1 -14 -3 -18 -9z"/>
<path d="M6446 5115 c-3 -8 0 -15 7 -15 7 -1 22 -22 35 -49 22 -48 30 -79 12
-51 -8 12 -10 12 -16 -3 -9 -25 -21 -21 -33 14 -8 24 -15 29 -30 24 -11 -3
-22 -1 -26 5 -8 13 -62 13 -70 0 -3 -5 -13 -6 -21 -3 -14 5 -15 -2 -9 -58 8
-74 10 -79 33 -79 22 -1 54 -28 67 -57 7 -17 14 -20 25 -13 13 8 12 12 -7 25
-13 9 -23 23 -23 31 0 9 -5 12 -12 8 -7 -5 -9 -2 -5 9 4 11 2 14 -7 11 -8 -3
-17 -1 -20 4 -9 15 25 24 40 11 22 -18 16 6 -6 26 -10 9 -26 15 -34 12 -10 -4
-13 -1 -10 8 4 10 15 12 37 8 29 -6 31 -5 18 10 -12 15 -11 17 8 17 28 0 80
-102 62 -124 -9 -10 -8 -16 4 -26 8 -7 15 -21 15 -32 0 -17 -2 -18 -15 -8 -24
20 -26 8 -3 -19 27 -35 39 -13 33 64 -5 57 -5 58 8 30 8 -16 12 -35 10 -41 -2
-7 0 -15 5 -18 5 -3 12 3 15 14 3 11 1 23 -5 26 -5 3 -7 17 -4 30 5 17 2 24
-9 24 -19 0 -19 29 0 50 13 14 13 19 0 44 -8 16 -15 37 -15 48 0 45 -40 78
-54 43z"/>
<path d="M6455 5040 c3 -5 8 -10 11 -10 2 0 4 5 4 10 0 6 -5 10 -11 10 -5 0
-7 -4 -4 -10z"/>
<path d="M6130 5009 c0 -6 -7 -8 -17 -5 -10 4 -14 4 -10 0 4 -4 2 -13 -4 -21
-9 -11 0 -13 50 -13 39 0 60 4 56 10 -3 5 -19 9 -35 7 -40 -3 -38 17 2 24 l33
6 -37 2 c-22 0 -38 -4 -38 -10z"/>
<path d="M7171 4684 c0 -11 3 -14 6 -6 3 7 2 16 -1 19 -3 4 -6 -2 -5 -13z"/>
<path d="M6746 4652 c-3 -3 -1 -11 4 -18 12 -14 50 -7 50 10 0 11 -44 18 -54
8z"/>
<path d="M5850 3300 c0 -5 5 -10 11 -10 5 0 7 5 4 10 -3 6 -8 10 -11 10 -2 0
-4 -4 -4 -10z"/>
<path d="M5665 3250 c3 -5 8 -10 11 -10 2 0 4 5 4 10 0 6 -5 10 -11 10 -5 0
-7 -4 -4 -10z"/>
<path d="M6015 3110 c3 -5 8 -10 11 -10 2 0 4 5 4 10 0 6 -5 10 -11 10 -5 0
-7 -4 -4 -10z"/>
<path d="M5228 2883 c6 -2 18 -2 25 0 6 3 1 5 -13 5 -14 0 -19 -2 -12 -5z"/>
<path d="M5725 2530 c-3 -5 3 -10 14 -10 12 0 21 5 21 10 0 6 -6 10 -14 10 -8
0 -18 -4 -21 -10z"/>
<path d="M5925 2479 c-4 -6 -4 -13 -1 -16 3 -4 6 -1 6 6 0 8 6 11 16 7 8 -3
12 -2 9 4 -8 13 -22 13 -30 -1z"/>
<path d="M5853 2413 c9 -2 25 -2 35 0 9 3 1 5 -18 5 -19 0 -27 -2 -17 -5z"/>
<path d="M5860 2345 c-14 -8 -20 -14 -14 -15 5 0 19 7 30 15 24 18 16 19 -16
0z"/>
<path d="M3345 1970 c-3 -5 -2 -10 4 -10 5 0 13 5 16 10 3 6 2 10 -4 10 -5 0
-13 -4 -16 -10z"/>
<path d="M6744 9523 c3 -8 6 -26 6 -41 0 -31 16 -19 25 19 5 21 2 27 -15 32
-16 4 -20 2 -16 -10z"/>
<path d="M4210 7871 c0 -6 5 -13 10 -16 6 -3 10 1 10 9 0 9 -4 16 -10 16 -5 0
-10 -4 -10 -9z"/>
<path d="M4522 5958 c5 -15 28 -23 28 -10 0 5 -7 13 -16 16 -10 4 -14 1 -12
-6z"/>
</g>
</svg>
